<svg width="24" height="24" viewBox="0 0 24 24" fill="currentColor" xmlns="http://www.w3.org/2000/svg">
    <path d="M22.707 11.293L15.707 4.29301C15.5184 4.11085 15.2658 4.01006 15.0036 4.01234C14.7414 4.01461 14.4906 4.11978 14.3052 4.30519C14.1198 4.4906 14.0146 4.74141 14.0123 5.00361C14.01 5.26581 14.1108 5.51841 14.293 5.70701L19.586 11H2C1.73478 11 1.48043 11.1054 1.29289 11.2929C1.10536 11.4804 1 11.7348 1 12C1 12.2652 1.10536 12.5196 1.29289 12.7071C1.48043 12.8947 1.73478 13 2 13H19.586L14.293 18.293C14.1975 18.3853 14.1213 18.4956 14.0689 18.6176C14.0165 18.7396 13.9889 18.8708 13.9877 19.0036C13.9866 19.1364 14.0119 19.2681 14.0622 19.391C14.1125 19.5139 14.1867 19.6255 14.2806 19.7194C14.3745 19.8133 14.4861 19.8876 14.609 19.9378C14.7319 19.9881 14.8636 20.0134 14.9964 20.0123C15.1292 20.0111 15.2604 19.9835 15.3824 19.9311C15.5044 19.8787 15.6148 19.8025 15.707 19.707L22.707 12.707C22.8945 12.5195 22.9998 12.2652 22.9998 12C22.9998 11.7348 22.8945 11.4805 22.707 11.293Z"/>
</svg>
