<svg width="24" height="24" viewBox="0 0 24 24" fill="none" xmlns="http://www.w3.org/2000/svg">
    <path d="M18.5475 10.5C18.4475 10.1879 18.2614 9.91041 18.0106 9.69944C17.7599 9.48847 17.4546 9.35261 17.13 9.3075L14.805 9C14.7648 8.99249 14.7269 8.9757 14.6944 8.95096C14.6618 8.92622 14.6355 8.89421 14.6175 8.8575L13.575 6.75C13.4303 6.45569 13.2061 6.2078 12.9277 6.03445C12.6493 5.8611 12.3279 5.76921 12 5.76921C11.6721 5.76921 11.3507 5.8611 11.0723 6.03445C10.7939 6.2078 10.5697 6.45569 10.425 6.75L9.38251 8.85C9.36451 8.88671 9.33819 8.91872 9.30563 8.94346C9.27308 8.9682 9.2352 8.98499 9.19501 8.9925L6.87 9.33C6.5444 9.3758 6.23822 9.51215 5.98634 9.72351C5.73447 9.93487 5.54704 10.2127 5.44541 10.5254C5.34378 10.8382 5.33204 11.1731 5.41153 11.4922C5.49102 11.8112 5.65854 12.1015 5.895 12.33L7.57501 13.9725C7.6048 14.0011 7.62719 14.0366 7.64025 14.0757C7.65332 14.1149 7.65667 14.1567 7.65 14.1975L7.2525 16.5C7.19776 16.8228 7.23402 17.1545 7.35722 17.4579C7.48042 17.7612 7.68569 18.0243 7.95001 18.2175C8.25003 18.4378 8.61279 18.5561 8.985 18.555C9.26979 18.554 9.55016 18.4845 9.8025 18.3525L11.88 17.25C11.9173 17.2315 11.9584 17.2219 12 17.2219C12.0416 17.2219 12.0827 17.2315 12.12 17.25L14.1975 18.345C14.4871 18.4979 14.8136 18.5668 15.1403 18.5438C15.4669 18.5209 15.7806 18.407 16.0459 18.215C16.3112 18.0231 16.5175 17.7607 16.6415 17.4577C16.7655 17.1546 16.8022 16.8229 16.7475 16.5L16.35 14.1825C16.3433 14.1417 16.3467 14.0999 16.3598 14.0608C16.3728 14.0216 16.3952 13.9861 16.425 13.9575L18.105 12.315C18.3445 12.0864 18.5134 11.7939 18.5918 11.4723C18.6703 11.1506 18.6549 10.8132 18.5475 10.5ZM17.0475 11.25L15.375 12.8925C15.1713 13.0909 15.019 13.336 14.9314 13.6065C14.8438 13.877 14.8236 14.1649 14.8725 14.445L15.27 16.7625C15.2792 16.8095 15.2741 16.8582 15.2554 16.9023C15.2367 16.9464 15.2052 16.9839 15.165 17.01C15.1248 17.0361 15.0779 17.0501 15.03 17.0501C14.9821 17.0501 14.9352 17.0361 14.895 17.01L12.8175 15.915C12.5654 15.7823 12.2849 15.713 12 15.713C11.7151 15.713 11.4346 15.7823 11.1825 15.915L9.10501 17.01C9.06483 17.0361 9.01793 17.0501 8.97001 17.0501C8.92208 17.0501 8.87518 17.0361 8.835 17.01C8.7948 16.9839 8.76331 16.9464 8.7446 16.9023C8.72588 16.8582 8.7208 16.8095 8.73001 16.7625L9.12751 14.445C9.17638 14.1649 9.15616 13.877 9.06859 13.6065C8.98103 13.336 8.82876 13.0909 8.625 12.8925L6.9375 11.25C6.9024 11.2173 6.87792 11.1748 6.86722 11.128C6.85653 11.0812 6.86011 11.0322 6.8775 10.9875C6.88854 10.941 6.91412 10.8991 6.95053 10.8681C6.98695 10.8371 7.0323 10.8185 7.08 10.815L9.405 10.4775C9.6882 10.4361 9.95707 10.3264 10.1884 10.1579C10.4197 9.98929 10.6064 9.76693 10.7325 9.51L11.7675 7.41C11.7877 7.36527 11.8204 7.32733 11.8616 7.30072C11.9029 7.27412 11.9509 7.25998 12 7.26C12.0481 7.26018 12.0952 7.27356 12.1362 7.29869C12.1772 7.32382 12.2105 7.35973 12.2325 7.4025L13.2675 9.51C13.3907 9.77114 13.5763 9.99799 13.8077 10.1706C14.0392 10.3432 14.3096 10.4564 14.595 10.5L16.92 10.8375C16.9677 10.841 17.0131 10.8596 17.0495 10.8906C17.0859 10.9216 17.1115 10.9635 17.1225 11.01C17.1352 11.0517 17.1364 11.096 17.1258 11.1383C17.1152 11.1806 17.0934 11.2192 17.0625 11.25H17.0475ZM12 1.5C9.9233 1.5 7.89323 2.11581 6.16652 3.26957C4.4398 4.42332 3.09399 6.0632 2.29927 7.98182C1.50455 9.90045 1.29661 12.0116 1.70176 14.0484C2.1069 16.0852 3.10693 17.9562 4.57538 19.4246C6.04383 20.8931 7.91476 21.8931 9.95156 22.2982C11.9884 22.7034 14.0996 22.4955 16.0182 21.7007C17.9368 20.906 19.5767 19.5602 20.7304 17.8335C21.8842 16.1068 22.5 14.0767 22.5 12C22.5 9.21523 21.3938 6.54451 19.4246 4.57538C17.4555 2.60625 14.7848 1.5 12 1.5ZM12 21C10.22 21 8.47992 20.4722 6.99987 19.4832C5.51983 18.4943 4.36628 17.0887 3.68509 15.4442C3.0039 13.7996 2.82567 11.99 3.17294 10.2442C3.5202 8.49836 4.37737 6.89471 5.63604 5.63604C6.89472 4.37737 8.49836 3.5202 10.2442 3.17293C11.99 2.82567 13.7996 3.0039 15.4442 3.68508C17.0887 4.36627 18.4943 5.51983 19.4832 6.99987C20.4722 8.47991 21 10.22 21 12C21 14.3869 20.0518 16.6761 18.364 18.364C16.6761 20.0518 14.387 21 12 21Z" fill="currentColor"/>
</svg>
