<svg width="18" height="18" viewBox="0 0 18 18" fill="none" xmlns="http://www.w3.org/2000/svg">
    <path d="M7.7025 15.75C7.70294 15.9357 7.64833 16.1174 7.54558 16.2722C7.44282 16.4269 7.29651 16.5477 7.12514 16.6193C6.95377 16.6909 6.76502 16.7102 6.58272 16.6746C6.40042 16.639 6.23276 16.5502 6.1009 16.4194C5.96904 16.2886 5.87891 16.1216 5.84187 15.9396C5.80484 15.7576 5.82257 15.5687 5.89283 15.3968C5.96308 15.2248 6.08271 15.0776 6.23661 14.9736C6.39051 14.8696 6.57177 14.8135 6.7575 14.8125H6.765C7.01364 14.8125 7.2521 14.9113 7.42791 15.0871C7.60373 15.2629 7.7025 15.5014 7.7025 15.75ZM12.765 14.8125H12.7575C12.5082 14.8135 12.2695 14.9134 12.0937 15.0902C11.9179 15.267 11.8195 15.5063 11.82 15.7556C11.8205 16.0049 11.9199 16.2439 12.0963 16.42C12.2728 16.5961 12.5119 16.695 12.7613 16.695C13.0106 16.695 13.2497 16.5961 13.4262 16.42C13.6026 16.2439 13.702 16.0049 13.7025 15.7556C13.703 15.5063 13.6046 15.267 13.4288 15.0902C13.253 14.9134 13.0143 14.8135 12.765 14.8125ZM16.2788 6.369L15.5183 10.9935C15.4994 11.3314 15.4114 11.6619 15.2597 11.9645C15.108 12.2671 14.8959 12.5353 14.6365 12.7527C14.377 12.97 14.0757 13.1318 13.7513 13.2281C13.4268 13.3244 13.086 13.3531 12.75 13.3125H6.5505C6.05473 13.3104 5.57616 13.1305 5.2017 12.8056C4.82724 12.4807 4.58172 12.0323 4.50975 11.5418L3.375 3.61725C3.34223 3.3947 3.2309 3.19123 3.06116 3.04363C2.89141 2.89603 2.67444 2.81404 2.4495 2.8125H2.25C2.10082 2.8125 1.95774 2.75324 1.85225 2.64775C1.74676 2.54226 1.6875 2.39918 1.6875 2.25C1.6875 2.10082 1.74676 1.95774 1.85225 1.85225C1.95774 1.74676 2.10082 1.6875 2.25 1.6875H2.4495C2.94527 1.68961 3.42384 1.86945 3.7983 2.19437C4.17276 2.51929 4.41828 2.96773 4.49025 3.45825L4.55925 3.9375H14.25C14.5521 3.93746 14.8506 4.0038 15.1242 4.13182C15.3979 4.25984 15.6401 4.44642 15.8337 4.67837C16.0273 4.91032 16.1676 5.18197 16.2446 5.47411C16.3216 5.76625 16.3328 6.07175 16.2788 6.369ZM14.9693 5.4C14.8815 5.29443 14.7715 5.20948 14.6472 5.15115C14.5229 5.09282 14.3873 5.06256 14.25 5.0625H4.71975L5.61975 11.3828C5.65266 11.6062 5.76474 11.8104 5.93558 11.9581C6.10643 12.1058 6.32465 12.1872 6.5505 12.1875H12.75C13.95 12.1875 14.2395 11.7375 14.4098 10.8023L15.1703 6.177C15.1962 6.04068 15.1916 5.90031 15.1569 5.76596C15.1221 5.63162 15.058 5.50664 14.9693 5.4ZM10.8345 7.227L9.2325 8.829L8.6325 8.229C8.52646 8.12649 8.3844 8.06972 8.23691 8.07093C8.08942 8.07214 7.94831 8.13123 7.84397 8.23548C7.73963 8.33972 7.68041 8.48078 7.67906 8.62826C7.6777 8.77575 7.73434 8.91786 7.83675 9.024L8.8365 10.0238C8.88874 10.076 8.95076 10.1175 9.01903 10.1458C9.0873 10.1741 9.16048 10.1886 9.23438 10.1886C9.30827 10.1886 9.38145 10.1741 9.44972 10.1458C9.51799 10.1175 9.58001 10.076 9.63225 10.0238L11.6303 8.025C11.7358 7.91948 11.7951 7.77636 11.7951 7.62713C11.7951 7.47789 11.7358 7.33477 11.6303 7.22925C11.5247 7.12373 11.3816 7.06445 11.2324 7.06445C11.0831 7.06445 10.94 7.12373 10.8345 7.22925V7.227Z" fill="currentColor"/>
</svg>
