<svg width="16" height="16" viewBox="0 0 16 16" fill="currentColor" xmlns="http://www.w3.org/2000/svg">
    <path d="M8 11C7.93433 11.0001 7.8693 10.9872 7.80863 10.962C7.74797 10.9369 7.69287 10.9 7.6465 10.8535L2.6465 5.85353C2.45113 5.65816 2.45113 5.34178 2.6465 5.14653C2.84188 4.95128 3.15825 4.95116 3.3535 5.14653L8 9.79303L12.6465 5.14653C12.8419 4.95116 13.1583 4.95116 13.3535 5.14653C13.5488 5.34191 13.5489 5.65828 13.3535 5.85353L8.3535 10.8535C8.30713 10.9 8.25203 10.9369 8.19137 10.962C8.1307 10.9872 8.06567 11.0001 8 11Z" fill="currentColor"/>
</svg>
