<svg width="10" height="18" viewBox="0 0 10 18" fill="none" xmlns="http://www.w3.org/2000/svg">
    <path d="M9.49998 9C9.50009 9.0985 9.48072 9.19605 9.44301 9.28705C9.4053 9.37805 9.34998 9.4607 9.28024 9.53025L1.78024 17.0302C1.48717 17.3233 1.01261 17.3233 0.719736 17.0302C0.426861 16.7372 0.426673 16.2626 0.719736 15.9697L7.68949 9L0.719736 2.03025C0.426673 1.73719 0.426673 1.26262 0.719736 0.969749C1.0128 0.676874 1.48736 0.676687 1.78024 0.969749L9.28024 8.46975C9.34998 8.5393 9.4053 8.62195 9.44301 8.71295C9.48072 8.80395 9.50009 8.9015 9.49998 9Z" fill="#7852E4"/>
</svg>
