<svg width="34" height="34" viewBox="0 0 34 34" fill="currentColor" xmlns="http://www.w3.org/2000/svg">
    <path fill-rule="evenodd" clip-rule="evenodd" d="M23.1826 24.4199C23.5106 24.7479 24.0536 24.7368 24.3953 24.3951C24.737 24.0534 24.7481 23.5105 24.42 23.1824L18.2083 16.9707L24.4202 10.7589C24.7482 10.4308 24.7371 9.88788 24.3954 9.54618C24.0537 9.20447 23.5108 9.19339 23.1827 9.52143L16.9709 15.7333L10.7587 9.52113C10.4307 9.19309 9.88775 9.20417 9.54604 9.54587C9.20434 9.88758 9.19326 10.4305 9.5213 10.7586L15.7334 16.9707L9.52143 23.1827C9.19339 23.5108 9.20447 24.0537 9.54617 24.3954C9.88788 24.7371 10.4308 24.7482 10.7589 24.4202L16.9709 18.2081L23.1826 24.4199Z" />
</svg>
