<svg width="22" height="22" viewBox="0 0 22 22" fill="none" xmlns="http://www.w3.org/2000/svg">
    <path d="M10.4875 3.75277H17.1649C17.5744 3.75277 17.9068 4.08517 17.9068 4.49468L17.9068 17.8494C17.9068 18.2589 17.5744 18.5913 17.1649 18.5913H10.4875C10.0772 18.5913 9.74557 18.9229 9.74557 19.3332C9.74557 19.7435 10.0772 20.0752 10.4875 20.0752H17.1649C18.392 20.0752 19.3906 19.0765 19.3906 17.8494L19.3906 4.49471C19.3906 3.26757 18.392 2.26895 17.1649 2.26895H10.4875C10.0772 2.26895 9.74557 2.60058 9.74557 3.01086C9.74557 3.42114 10.0772 3.75277 10.4875 3.75277Z" fill="currentColor"/>
    <path d="M1.74599 11.7006L6.25691 16.1521C6.54775 16.44 7.01812 16.4363 7.30599 16.1447C7.59387 15.8531 7.5909 15.3835 7.29856 15.0956L4.0749 11.9142H12.7132C13.1234 11.9142 13.4551 11.5826 13.4551 11.1723C13.4551 10.7621 13.1234 10.4304 12.7132 10.4304H4.0749L7.29856 7.24902C7.59087 6.96114 7.5931 6.49151 7.30599 6.19994C7.23699 6.12991 7.15475 6.07431 7.06407 6.03635C6.97338 5.9984 6.87605 5.97885 6.77774 5.97885C6.58928 5.97885 6.40085 6.05007 6.25691 6.19254L1.74599 10.6441C1.67604 10.7132 1.62048 10.7954 1.58253 10.8861C1.54458 10.9768 1.52499 11.0741 1.5249 11.1724C1.5249 11.3711 1.60428 11.5603 1.74599 11.7006Z" fill="currentColor"/>
</svg>
