<svg width="121" height="20" viewBox="0 0 121 20" fill="none" xmlns="http://www.w3.org/2000/svg">
    <path d="M4.60254 18.75H11.6763L18.75 8.45752H12.0425L4.60254 18.75Z" fill="#8670E0"/>
    <path d="M10 1.25H17.0725L12.0975 8.4575H18.75L14.8213 14.17H1.25L10 1.25Z" fill="#A597E4"/>
    <path d="M6.59378 16.0224L14.5313 14.1699H7.90253L6.59253 16.0224H6.59378Z" fill="black" fill-opacity="0.4"/>
    <path d="M31.2393 7.67387C31.1881 7.15825 30.9687 6.75768 30.5809 6.47217C30.1931 6.18666 29.6668 6.0439 29.002 6.0439C28.5503 6.0439 28.1689 6.10782 27.8579 6.23566C27.5468 6.35924 27.3082 6.53183 27.142 6.75342C26.98 6.97501 26.8991 7.22643 26.8991 7.50768C26.8905 7.74205 26.9395 7.9466 27.0461 8.12132C27.1569 8.29603 27.3082 8.44731 27.4999 8.57515C27.6917 8.69873 27.9133 8.8074 28.1647 8.90115C28.4161 8.99063 28.6846 9.06734 28.9701 9.13126L30.1462 9.41251C30.7172 9.54035 31.2414 9.7108 31.7187 9.92387C32.1959 10.1369 32.6093 10.399 32.9587 10.7101C33.3082 11.0212 33.5787 11.3877 33.7705 11.8095C33.9665 12.2314 34.0667 12.7151 34.0709 13.2605C34.0667 14.0617 33.8621 14.7563 33.4573 15.3443C33.0567 15.9281 32.4772 16.382 31.7187 16.7058C30.9644 17.0254 30.0546 17.1852 28.9893 17.1852C27.9324 17.1852 27.012 17.0233 26.2279 16.6994C25.4481 16.3756 24.8387 15.8962 24.3998 15.2612C23.9651 14.622 23.7371 13.8315 23.7158 12.8898H26.3941C26.4239 13.3287 26.5496 13.6952 26.7712 13.9892C26.9971 14.279 27.2975 14.4984 27.6725 14.6476C28.0518 14.7925 28.48 14.8649 28.9573 14.8649C29.426 14.8649 29.833 14.7967 30.1782 14.6604C30.5276 14.524 30.7982 14.3344 30.99 14.0915C31.1817 13.8486 31.2776 13.5695 31.2776 13.2541C31.2776 12.9601 31.1903 12.7129 31.0155 12.5127C30.8451 12.3124 30.5937 12.1419 30.2613 12.0013C29.9331 11.8607 29.5305 11.7328 29.0532 11.6178L27.6278 11.2598C26.5241 10.9913 25.6526 10.5716 25.0134 10.0006C24.3742 9.42955 24.0567 8.66038 24.061 7.69305C24.0567 6.90043 24.2677 6.20796 24.6938 5.61563C25.1242 5.02331 25.7144 4.56095 26.4644 4.22856C27.2144 3.89617 28.0667 3.72998 29.0212 3.72998C29.9928 3.72998 30.8408 3.89617 31.5653 4.22856C32.2939 4.56095 32.8607 5.02331 33.2655 5.61563C33.6704 6.20796 33.8792 6.89404 33.892 7.67387H31.2393Z" fill="white"/>
    <path d="M35.9326 3.90896H39.346L42.9511 12.7044H43.1045L46.7096 3.90896H50.123V16.9999H47.4383V8.47927H47.3296L43.9418 16.9359H42.1137L38.7259 8.44731H38.6173V16.9999H35.9326V3.90896Z" fill="white"/>
    <path d="M52.4033 3.90896H55.8167L59.4218 12.7044H59.5752L63.1803 3.90896H66.5937V16.9999H63.909V8.47927H63.8003L60.4126 16.9359H58.5844L55.1966 8.44731H55.088V16.9999H52.4033V3.90896Z" fill="white"/>
    <path d="M68.874 16.9999V3.90896H77.5416V6.19092H71.6418V9.31024H76.9664V11.5922H71.6418V16.9999H68.874Z" fill="white"/>
    <path d="M79.4033 16.9999V3.90896H82.1711V14.7179H87.7833V16.9999H79.4033Z" fill="white"/>
    <path d="M101.136 10.4544C101.136 11.882 100.866 13.0965 100.324 14.0979C99.7876 15.0993 99.0546 15.8642 98.1256 16.3926C97.2009 16.9168 96.1611 17.1788 95.0063 17.1788C93.8429 17.1788 92.7989 16.9146 91.8742 16.3862C90.9495 15.8578 90.2187 15.0929 89.6817 14.0915C89.1448 13.0901 88.8763 11.8777 88.8763 10.4544C88.8763 9.02686 89.1448 7.81237 89.6817 6.81095C90.2187 5.80953 90.9495 5.04674 91.8742 4.52259C92.7989 3.99419 93.8429 3.72998 95.0063 3.72998C96.1611 3.72998 97.2009 3.99419 98.1256 4.52259C99.0546 5.04674 99.7876 5.80953 100.324 6.81095C100.866 7.81237 101.136 9.02686 101.136 10.4544ZM98.3302 10.4544C98.3302 9.5297 98.1917 8.74987 97.9147 8.11492C97.642 7.47998 97.2563 6.99845 96.7577 6.67032C96.2591 6.3422 95.6753 6.17813 95.0063 6.17813C94.3373 6.17813 93.7535 6.3422 93.2549 6.67032C92.7563 6.99845 92.3685 7.47998 92.0915 8.11492C91.8188 8.74987 91.6824 9.5297 91.6824 10.4544C91.6824 11.3791 91.8188 12.159 92.0915 12.7939C92.3685 13.4288 92.7563 13.9104 93.2549 14.2385C93.7535 14.5666 94.3373 14.7307 95.0063 14.7307C95.6753 14.7307 96.2591 14.5666 96.7577 14.2385C97.2563 13.9104 97.642 13.4288 97.9147 12.7939C98.1917 12.159 98.3302 11.3791 98.3302 10.4544Z" fill="white"/>
    <path d="M105.641 16.9999L101.895 3.90896H104.919L107.086 13.0048H107.194L109.585 3.90896H112.174L114.558 13.024H114.673L116.84 3.90896H119.863L116.118 16.9999H113.42L110.927 8.44092H110.825L108.339 16.9999H105.641Z" fill="white"/>
</svg>
