<svg width="196" height="27" viewBox="0 0 196 27" fill="none" xmlns="http://www.w3.org/2000/svg">
    <rect y="0.941406" width="46" height="26" rx="4" fill="white" fill-opacity="0.2"/>
    <path fill-rule="evenodd" clip-rule="evenodd" d="M8.06002 8.94311C8.38754 8.94115 9.3609 8.85349 9.7732 10.245C10.0509 11.1823 10.4933 12.7177 11.1004 14.8512H11.3477C11.9987 12.602 12.4459 11.0666 12.6894 10.245C13.106 8.83899 14.1474 8.94314 14.564 8.94314L17.7782 8.94314V18.9414H14.5022V13.0493H14.2826L12.4564 18.9414H9.99169L8.16552 13.0449H7.94585V18.9414H4.66992V8.94314L8.06002 8.94311ZM22.4823 8.94314V14.8397H22.7437L24.965 9.991C25.3962 9.0261 26.3153 8.94314 26.3153 8.94314H29.4854V18.9414H26.141V13.0449H25.8797L23.7019 17.8936C23.2707 18.8541 22.3081 18.9414 22.3081 18.9414H19.138V8.94314H22.4823ZM41.0449 13.6944C40.5784 15.0163 39.1134 15.9631 37.4915 15.9631H33.9843V18.9414H30.804V13.6944H41.0449Z" fill="white"/>
    <path fill-rule="evenodd" clip-rule="evenodd" d="M37.6444 8.94312H30.6367C30.8035 11.1691 32.7204 13.0746 34.7049 13.0746H41.2654C41.644 11.2246 40.3407 8.94312 37.6444 8.94312Z" fill="white"/>
    <rect x="50" y="0.941406" width="46" height="26" rx="4" fill="white" fill-opacity="0.2"/>
    <g clip-path="url(#clip0_1440_3547)">
        <path d="M70.528 19.7684H67.5244L69.4031 8.1521H72.4065L70.528 19.7684Z" fill="white"/>
        <path d="M81.4163 8.43596C80.8238 8.20092 79.8842 7.94141 78.7223 7.94141C75.7561 7.94141 73.6674 9.52312 73.6545 11.7845C73.6299 13.4529 75.15 14.3796 76.287 14.9359C77.449 15.5044 77.844 15.8754 77.844 16.3821C77.8322 17.1604 76.905 17.5191 76.0402 17.5191C74.8411 17.5191 74.1985 17.3341 73.2221 16.9012L72.8266 16.7156L72.4062 19.3232C73.1107 19.6441 74.4086 19.9289 75.7561 19.9414C78.9077 19.9414 80.9595 18.3842 80.9838 15.9743C80.9958 14.6519 80.1931 13.6387 78.4626 12.8107C77.4121 12.2792 76.7687 11.9208 76.7687 11.377C76.781 10.8826 77.3128 10.3762 78.4987 10.3762C79.4752 10.3514 80.1926 10.5861 80.7361 10.821L81.0078 10.9444L81.4163 8.43596Z" fill="white"/>
        <path d="M85.4083 15.6532C85.6557 14.9858 86.6075 12.403 86.6075 12.403C86.595 12.4278 86.8544 11.7234 87.0027 11.2909L87.2126 12.2918C87.2126 12.2918 87.7814 15.0724 87.9049 15.6532C87.4355 15.6532 86.0016 15.6532 85.4083 15.6532ZM89.1159 8.1521H86.7926C86.0761 8.1521 85.5318 8.36201 85.2227 9.11591L80.7612 19.7683H83.9128C83.9128 19.7683 84.4317 18.3345 84.5432 18.0257C84.889 18.0257 87.9548 18.0257 88.3996 18.0257C88.4858 18.4336 88.758 19.7683 88.758 19.7683H91.5391L89.1159 8.1521Z" fill="white"/>
        <path d="M65.0158 8.1521L62.0742 16.0733L61.7528 14.4668C61.209 12.6131 59.5034 10.5991 57.6001 9.59765L60.2944 19.7561H63.4707L68.1918 8.1521H65.0158Z" fill="white"/>
        <path d="M59.3427 8.1521H54.5101L54.4607 8.38681C58.2304 9.35079 60.7269 11.6744 61.7527 14.4673L60.7021 9.12856C60.5292 8.38665 59.9977 8.17657 59.3427 8.1521Z" fill="white"/>
    </g>
    <rect x="100" y="0.941406" width="46" height="26" rx="4" fill="white" fill-opacity="0.2"/>
    <path d="M126.926 6.8667H119.05V21.0162H126.926V6.8667Z" fill="white" fill-opacity="0.8"/>
    <path d="M119.575 13.9414C119.575 11.0666 120.926 8.51519 123 6.86665C121.474 5.66665 119.548 4.94141 117.448 4.94141C112.474 4.94141 108.448 8.96665 108.448 13.9414C108.448 18.9162 112.474 22.9414 117.448 22.9414C119.548 22.9414 121.474 22.2162 123 21.0162C120.923 19.3909 119.575 16.8162 119.575 13.9414Z" fill="white"/>
    <path d="M137.551 13.9414C137.551 18.9162 133.526 22.9414 128.551 22.9414C126.451 22.9414 124.526 22.2162 123 21.0162C125.1 19.3647 126.425 16.8162 126.425 13.9414C126.425 11.0666 125.074 8.51519 123 6.86665C124.523 5.66665 126.449 4.94141 128.549 4.94141C133.526 4.94141 137.551 8.99286 137.551 13.9414Z" fill="white"/>
    <rect x="150" y="0.941406" width="46" height="26" rx="4" fill="white" fill-opacity="0.2"/>
    <path fill-rule="evenodd" clip-rule="evenodd" d="M162.786 19.4386C164.032 19.4386 165.383 19.865 166.88 21.1882C167.03 21.3206 167.229 21.156 167.098 20.9913C165.628 19.1383 164.268 18.7856 162.912 18.4875C161.252 18.1224 160.399 17.1906 159.804 16.1677C159.686 15.9644 159.633 16.0003 159.622 16.262C159.609 16.5816 159.632 17.0052 159.703 17.4219C159.636 17.4247 159.569 17.4242 159.501 17.4242C157.128 17.4242 155.203 15.5036 155.203 13.1346C155.203 10.766 157.128 8.84581 159.501 8.84581C161.875 8.84581 163.799 10.766 163.799 13.1346C163.799 13.3033 163.791 13.4703 163.771 13.6336C163.458 13.577 162.84 13.5706 162.407 13.6078C162.244 13.6221 162.267 13.6979 162.39 13.72C163.811 13.9762 164.786 14.8551 165.01 16.4496C165.014 16.4864 165.063 16.497 165.082 16.4653C165.686 15.4594 166.004 14.3078 166.002 13.1346C166.002 9.55179 163.092 6.64648 159.501 6.64648C155.911 6.64648 153 9.55133 153 13.1346C153 16.7182 155.911 19.6235 159.501 19.6235C160.453 19.6235 161.399 19.4386 162.786 19.4386ZM163.27 17.0829C163.559 17.3267 163.647 17.6169 163.494 17.8216C163.409 17.9338 163.271 17.9959 163.105 17.9959C162.944 17.9959 162.787 17.9393 162.663 17.8358C162.4 17.6063 162.323 17.2347 162.495 17.0236C162.562 16.9408 162.671 16.8953 162.801 16.8953C162.96 16.8953 163.126 16.962 163.27 17.0829ZM164.604 16.463C164.647 16.7472 164.557 16.8649 164.466 16.8649C164.367 16.8649 164.244 16.75 164.098 16.5223C163.953 16.2979 163.901 16.0403 163.972 15.9102C164.019 15.8242 164.118 15.7864 164.243 15.8338C164.484 15.9244 164.578 16.2933 164.604 16.463ZM173.616 14.9774L172.866 14.0774C172.849 14.0562 172.837 14.0304 172.834 14.003C172.831 13.9757 172.835 13.9479 172.847 13.923C172.859 13.8981 172.877 13.8771 172.9 13.8624C172.924 13.8477 172.951 13.8399 172.978 13.8401H174.546C174.621 13.6184 174.663 13.3815 174.663 13.135C174.663 12.0082 173.822 11.0364 172.669 11.0364C171.515 11.0364 170.675 12.0082 170.675 13.135C170.675 14.2618 171.515 15.2203 172.669 15.2203C173.018 15.2203 173.338 15.1315 173.616 14.9774ZM177.007 16.4975C177.089 16.5876 177.022 16.732 176.899 16.732H175.188C175.154 16.7321 175.12 16.7246 175.089 16.71C175.058 16.6955 175.03 16.6743 175.008 16.6479L174.718 16.2997C174.108 16.6955 173.396 16.9057 172.669 16.905C170.586 16.905 168.892 15.2138 168.892 13.135C168.892 11.0562 170.586 9.36506 172.669 9.36506C174.752 9.36506 176.446 11.0562 176.446 13.135C176.446 13.8847 176.225 14.5828 175.846 15.1706L177.007 16.4975ZM192.814 9.53937H191.417C191.368 9.53949 191.321 9.55906 191.286 9.59379C191.252 9.62852 191.232 9.6756 191.232 9.72472V16.5467C191.232 16.6492 191.315 16.732 191.417 16.732H192.814C192.917 16.732 193 16.6492 193 16.5467V9.72426C193 9.67498 192.98 9.62772 192.946 9.59287C192.911 9.55803 192.863 9.53937 192.814 9.53937ZM190.464 9.53937H188.902C188.862 9.53922 188.824 9.55177 188.792 9.57519C188.76 9.59861 188.736 9.63167 188.724 9.66953L187.488 13.7012L186.129 9.66493C186.116 9.62811 186.093 9.59613 186.061 9.57351C186.029 9.5509 185.992 9.53879 185.953 9.53891H184.863C184.824 9.53877 184.786 9.55085 184.754 9.57347C184.722 9.59608 184.699 9.62807 184.686 9.66493L183.327 13.7012L182.091 9.66953C182.079 9.63158 182.056 9.59843 182.024 9.57492C181.992 9.55141 181.953 9.53879 181.913 9.53891H180.351C180.322 9.53896 180.293 9.54594 180.266 9.55929C180.24 9.57264 180.218 9.59197 180.2 9.61572C180.183 9.63924 180.172 9.66655 180.167 9.69536C180.163 9.72418 180.165 9.75364 180.175 9.78129L182.47 16.6069C182.495 16.6824 182.566 16.733 182.646 16.733H183.886C183.966 16.733 184.037 16.6824 184.062 16.6074L185.408 12.6194L186.753 16.6069C186.778 16.6824 186.85 16.733 186.929 16.733H188.169C188.25 16.733 188.32 16.6824 188.346 16.6069L190.641 9.78129C190.65 9.75367 190.652 9.72424 190.648 9.69544C190.644 9.66664 190.632 9.63931 190.615 9.61572C190.598 9.59194 190.575 9.57258 190.549 9.55924C190.523 9.54589 190.493 9.53938 190.464 9.53937ZM179.583 9.72472V16.5467C179.583 16.6492 179.5 16.732 179.397 16.732H178.001C177.952 16.732 177.905 16.7125 177.87 16.6778C177.835 16.643 177.815 16.5959 177.815 16.5467V9.72426C177.815 9.6217 177.898 9.53845 178.001 9.53845H179.397C179.5 9.53845 179.583 9.6217 179.583 9.72472Z" fill="white"/>
    <defs>
        <clipPath id="clip0_1440_3547">
            <rect width="37.0784" height="12" fill="white" transform="translate(54.4607 7.94141)"/>
        </clipPath>
    </defs>
</svg>
