<svg width="24" height="25" viewBox="0 0 24 25" fill="none" xmlns="http://www.w3.org/2000/svg">
    <path fill-rule="evenodd" clip-rule="evenodd" d="M11.1251 22.1599C11.1251 22.6238 11.5168 22.9999 12.0001 22.9999C12.4833 22.9999 12.8751 22.6238 12.8751 22.1599V13.3752H21.6599C22.1239 13.3752 22.4999 12.9834 22.4999 12.5002C22.4999 12.0169 22.1239 11.6252 21.6599 11.6252H12.8751V2.83988C12.8751 2.37596 12.4833 1.99988 12.0001 1.99988C11.5168 1.99988 11.1251 2.37596 11.1251 2.83988V11.6252H2.33994C1.87602 11.6252 1.49994 12.0169 1.49994 12.5002C1.49994 12.9834 1.87602 13.3752 2.33994 13.3752H11.1251V22.1599Z" fill="currentColor"/>
</svg>
