<svg width="430" height="290" viewBox="0 0 430 290" fill="none" xmlns="http://www.w3.org/2000/svg">
    <g filter="url(#filter0_d_1412_265)">
        <rect width="124.45" height="96.2221" rx="10" transform="matrix(0.949117 -0.314924 0.708728 0.705482 30.7065 197.247)" fill="white"/>
        <g clip-path="url(#clip0_1412_265)">
            <path d="M132.478 229.939L108.523 224.309C101.264 222.603 96.3036 217.666 97.3626 213.2L100.857 198.463C101.916 193.997 108.571 191.789 115.83 193.495L139.785 199.124C147.044 200.83 152.004 205.767 150.945 210.233L147.451 224.971C146.288 229.334 139.634 231.542 132.478 229.939Z" fill="url(#paint0_linear_1412_265)"/>
            <path d="M125.402 203.759C124.57 204.035 124.532 204.733 125.049 205.248C125.669 205.865 126.776 206.046 127.469 205.816C128.301 205.54 128.442 204.945 127.822 204.328C127.202 203.711 126.234 203.483 125.402 203.759Z" fill="white"/>
            <path d="M119.675 207.442C116.487 208.5 115.816 211.329 118.193 213.695C120.569 216.06 125.167 217.141 128.355 216.083C131.544 215.025 132.215 212.196 129.838 209.831C127.461 207.465 122.864 206.384 119.675 207.442ZM126.805 214.54C124.726 215.23 121.822 214.547 120.272 213.005C118.722 211.462 119.146 209.675 121.225 208.985C123.305 208.295 126.208 208.978 127.758 210.521C129.308 212.063 128.885 213.85 126.805 214.54Z" fill="white"/>
            <path d="M137.616 219.045L128.189 222.173C124.307 223.461 118.742 222.153 115.848 219.273L108.821 212.278C105.928 209.398 106.74 205.974 110.622 204.686L120.049 201.558C123.931 200.27 129.496 201.578 132.389 204.458L139.416 211.453C142.206 214.23 141.498 217.757 137.616 219.045ZM111.93 206.172C109.157 207.092 108.731 209.428 110.694 211.382L117.721 218.377C119.788 220.434 123.556 221.241 126.19 220.367L135.617 217.239C138.39 216.319 138.816 213.983 136.853 212.029L129.826 205.034C127.759 202.977 123.991 202.17 121.357 203.044L111.93 206.172Z" fill="white"/>
        </g>
    </g>
    <g filter="url(#filter1_d_1412_265)">
        <rect width="76.3605" height="59.0403" rx="6" transform="matrix(0.949117 -0.314924 0.708728 0.705482 167.01 136.122)" fill="white"/>
        <g clip-path="url(#clip1_1412_265)">
            <path d="M229.457 156.181L214.758 152.727C210.304 151.681 207.261 148.651 207.91 145.911L210.055 136.868C210.705 134.128 214.788 132.773 219.242 133.819L233.941 137.274C238.395 138.32 241.439 141.35 240.789 144.09L238.644 153.133C237.931 155.81 233.848 157.165 229.457 156.181Z" fill="url(#paint1_linear_1412_265)"/>
            <path d="M229.653 141.473C228.448 140.274 226.073 139.716 224.457 140.252L216.801 142.792C215.184 143.329 214.838 144.79 216.042 145.989L218.706 148.64C219.91 149.84 222.286 150.398 223.902 149.862L231.558 147.321C233.174 146.785 233.521 145.323 232.316 144.124L229.653 141.473ZM226.666 144.484L224.532 146.875C224.425 146.995 223.936 147.073 223.81 146.947L221.21 144.359C221.083 144.233 221.445 144.029 221.679 144.035L226.328 144.26C226.476 144.295 226.773 144.365 226.666 144.484Z" fill="white"/>
        </g>
    </g>
    <g filter="url(#filter2_d_1412_265)">
        <rect width="120.918" height="93.4914" rx="11" transform="matrix(0.949117 -0.314924 0.708728 0.705482 109.239 40.08)" fill="white"/>
        <g clip-path="url(#clip2_1412_265)">
            <path d="M208.123 71.8437L184.847 66.374C177.794 64.7166 172.975 59.9193 174.004 55.5801L177.399 41.261C178.428 36.9218 184.894 34.7765 191.947 36.434L215.222 41.9036C222.275 43.5611 227.095 48.3584 226.066 52.6975L222.67 67.0167C221.541 71.2559 215.075 73.4012 208.123 71.8437Z" fill="url(#paint2_linear_1412_265)"/>
            <path d="M205.925 45.5214C205.452 45.9448 204.845 46.4128 204.272 46.7362C204.676 46.6022 204.578 45.9684 204.647 45.6791C204.615 45.2899 204.583 44.9006 204.316 44.4562L204.216 44.3562L204.081 44.4009C203.574 44.9689 203.067 45.5369 202.225 45.9497C202.09 45.9944 202.09 45.9944 202.09 45.9944C201.855 45.9392 201.855 45.9392 201.62 45.8839C201.015 45.8181 200.41 45.7523 199.805 45.6865C199.065 45.6654 198.291 45.7889 197.718 46.1123C197.045 46.3358 196.707 46.7145 196.369 47.0931C196.031 47.4718 195.793 47.9504 195.791 48.4843C195.788 49.0181 195.921 49.5073 196.288 50.0517C196.655 50.5961 197.057 50.9959 197.694 51.4509C197.794 51.5509 197.794 51.5509 197.659 51.5956C193.755 52.3578 189.888 52.4416 185.456 51.2473C185.221 51.192 185.221 51.192 185.186 51.3367C185.314 52.8935 187.66 54.5137 189.91 54.9663C190.145 55.0215 190.515 55.0321 190.851 55.1873C190.716 55.232 189.807 55.4002 188.698 55.3685C188.563 55.4132 188.563 55.4132 188.664 55.5132C188.764 55.6131 188.864 55.7131 189.065 55.9129C190.405 57.0676 192.721 57.7647 194.605 57.6728C194.84 57.7281 195.109 57.6387 195.244 57.594C194.94 57.828 194.671 57.9174 193.628 58.1303C193.493 58.175 193.493 58.175 193.593 58.275C195.773 59.5507 197.791 59.4141 199.304 59.3117C199.439 59.267 199.574 59.2223 199.843 59.1329C199.841 59.6668 198.895 60.5135 198.322 60.8369C197.411 61.539 196.299 62.0412 194.987 62.3435C194.852 62.3882 194.717 62.4329 194.717 62.4329L194.818 62.5328C195.187 62.5434 195.557 62.5539 195.927 62.5645C197.036 62.5961 198.146 62.6278 199.054 62.4596C204.403 61.8841 208.55 59.5755 209.507 56.0595C210.159 53.3114 208.491 50.4 205.781 47.7015C205.68 47.6016 205.714 47.457 205.849 47.4123C206.121 46.789 206.258 46.2105 206.295 45.532C206.026 45.6214 205.925 45.5214 205.925 45.5214Z" fill="white"/>
        </g>
    </g>
    <g filter="url(#filter3_d_1412_265)">
        <rect width="91.9676" height="71.1074" rx="8" transform="matrix(0.949117 -0.314924 0.708728 0.705482 209.025 200.792)" fill="white"/>
        <g clip-path="url(#clip3_1412_265)">
            <path d="M284.234 224.95L266.531 220.79C261.167 219.53 257.502 215.881 258.284 212.581L260.867 201.69C261.649 198.39 266.567 196.758 271.931 198.019L289.634 202.179C294.998 203.439 298.664 207.088 297.881 210.388L295.299 221.279C294.44 224.503 289.522 226.135 284.234 224.95Z" fill="url(#paint3_linear_1412_265)"/>
            <path d="M272.553 218.083C272.477 218.007 272.401 217.931 272.324 217.855C272.35 217.745 272.377 217.635 272.505 217.491C273.813 216.753 274.15 215.728 273.874 214.502C273.725 213.538 273.394 213.344 271.961 213.414C271.859 213.448 271.859 213.448 271.68 213.406C271.399 213.398 271.015 213.424 270.658 213.34C269.84 213.206 269.613 212.572 270.151 212.292C270.484 212.08 271.123 212.172 271.636 212.002C271.943 211.9 271.969 211.79 271.74 211.562C271.027 210.988 270.416 210.38 269.805 209.771C268.762 208.597 268.563 207.447 269.36 206.473C270.364 205.025 272.413 204.345 275.097 204.569C276.861 204.694 278.342 205.216 279.616 206.212C280.406 206.862 281.093 207.546 281.678 208.264C281.983 208.569 282.059 208.645 282.393 208.433C282.829 208.187 283.009 207.823 283.751 207.881C284.135 207.855 284.569 208.015 284.798 208.243C284.95 208.395 285.001 208.581 284.872 208.725C284.82 208.945 284.589 209.123 284.358 209.301C284.229 209.445 284.101 209.589 283.87 209.767C283.613 210.055 283.637 210.351 284.147 210.587C286.01 211.489 287.875 211.985 289.922 211.712C290.127 211.644 290.408 211.652 290.663 211.77C290.739 211.846 290.816 211.922 290.892 211.998C290.916 212.294 290.864 212.514 290.531 212.726C290.3 212.904 290.043 213.192 289.735 213.294C289.223 213.464 289.171 213.684 289.45 214.098C289.73 214.512 289.627 214.546 289.115 214.716C289.012 214.75 288.91 214.784 288.731 214.742C287.554 214.93 286.708 215.312 286.526 216.082C286.397 216.226 286.371 216.336 286.242 216.48C285.598 217.606 284.24 218.158 282.195 218.025C281.632 218.009 281.096 217.883 280.533 217.867C280.073 217.817 279.689 217.843 279.203 217.903C278.512 218.031 278.076 218.277 277.538 218.557C277.231 218.659 276.847 218.685 276.618 218.457C276.083 217.925 275.418 217.943 274.727 218.071C274.42 218.173 274.036 218.199 273.679 218.115C273.345 218.327 272.885 218.277 272.553 218.083Z" fill="white"/>
        </g>
    </g>
    <g filter="url(#filter4_d_1412_265)">
        <g clip-path="url(#clip4_1412_265)">
            <rect width="105.736" height="81.7527" rx="11" transform="matrix(0.949117 -0.314924 0.708728 0.705482 258.393 100.295)" fill="white"/>
            <g clip-path="url(#clip5_1412_265)">
                <path d="M343.051 128.544L318.797 124.809C311.448 123.677 307.144 119.393 309.113 115.169L315.612 101.23C317.581 97.0065 325.036 94.5328 332.385 95.6646L356.639 99.3994C363.988 100.531 368.292 104.816 366.323 109.039L359.824 122.978C357.765 127.112 350.31 129.586 343.051 128.544Z" fill="url(#paint4_linear_1412_265)"/>
                <path fill-rule="evenodd" clip-rule="evenodd" d="M332.61 105.855C332.446 105.693 332.402 105.499 332.486 105.318C332.571 105.136 332.778 104.981 333.061 104.887L335.319 104.138C335.566 104.056 335.855 104.026 336.137 104.052C336.418 104.079 336.675 104.161 336.863 104.284C337.612 104.774 338.634 105.099 339.754 105.204C340.873 105.309 342.022 105.188 343.004 104.862C343.287 104.768 343.624 104.742 343.94 104.791C344.256 104.84 344.525 104.958 344.689 105.121L345.922 106.349C346.085 106.512 346.13 106.705 346.045 106.887C345.96 107.068 345.754 107.223 345.47 107.317C343.972 107.816 342.27 108.078 340.537 108.077L345.515 113.031C346.368 113.881 346.764 114.857 346.653 115.836C346.541 116.816 345.927 117.754 344.887 118.532C343.848 119.311 342.43 119.895 340.813 120.21C339.196 120.525 337.453 120.558 335.804 120.304C334.155 120.05 332.674 119.521 331.548 118.783C330.422 118.045 329.702 117.132 329.479 116.159C329.256 115.187 329.541 114.198 330.296 113.318C331.051 112.437 332.243 111.706 333.722 111.215C334.005 111.121 334.342 111.096 334.658 111.144C334.974 111.193 335.243 111.312 335.407 111.475L336.64 112.702C336.803 112.865 336.848 113.059 336.763 113.24C336.678 113.422 336.472 113.576 336.188 113.67C335.555 113.881 335.044 114.194 334.72 114.571C334.396 114.949 334.275 115.372 334.37 115.789C334.466 116.206 334.774 116.598 335.257 116.914C335.739 117.23 336.374 117.457 337.081 117.566C337.788 117.675 338.535 117.661 339.228 117.525C339.921 117.39 340.528 117.14 340.974 116.806C341.419 116.473 341.682 116.071 341.73 115.651C341.778 115.231 341.608 114.813 341.242 114.449L332.61 105.855Z" fill="#FE2C55"/>
                <path fill-rule="evenodd" clip-rule="evenodd" d="M330.925 105.596C330.761 105.433 330.717 105.24 330.802 105.058C330.886 104.877 331.093 104.722 331.376 104.628L333.635 103.878C333.882 103.797 334.171 103.766 334.452 103.793C334.733 103.82 334.99 103.902 335.178 104.025C335.928 104.514 336.949 104.839 338.069 104.945C339.189 105.05 340.337 104.929 341.319 104.602C341.603 104.508 341.939 104.483 342.255 104.532C342.571 104.58 342.84 104.699 343.004 104.862L344.237 106.089C344.401 106.252 344.445 106.446 344.36 106.627C344.276 106.809 344.069 106.964 343.786 107.058C342.287 107.557 340.585 107.819 338.853 107.817L343.83 112.772C344.684 113.622 345.08 114.598 344.968 115.577C344.857 116.556 344.242 117.494 343.203 118.273C342.163 119.051 340.746 119.635 339.129 119.951C337.512 120.266 335.769 120.299 334.119 120.045C332.47 119.791 330.989 119.262 329.863 118.524C328.737 117.786 328.018 116.873 327.795 115.9C327.572 114.927 327.856 113.938 328.611 113.058C329.366 112.178 330.559 111.446 332.037 110.956C332.321 110.862 332.657 110.836 332.973 110.885C333.289 110.934 333.558 111.052 333.722 111.215L334.955 112.443C335.119 112.606 335.163 112.799 335.078 112.981C334.994 113.162 334.787 113.317 334.504 113.411C333.87 113.621 333.359 113.935 333.036 114.312C332.712 114.689 332.59 115.113 332.686 115.53C332.781 115.947 333.09 116.338 333.572 116.654C334.055 116.971 334.689 117.197 335.396 117.306C336.103 117.415 336.85 117.401 337.543 117.266C338.236 117.131 338.844 116.881 339.289 116.547C339.734 116.213 339.998 115.811 340.046 115.392C340.094 114.972 339.924 114.554 339.558 114.189L330.925 105.596Z" fill="#25F4EE"/>
                <path fill-rule="evenodd" clip-rule="evenodd" d="M336.265 117.379C336.974 117.601 337.789 117.684 338.587 117.616C339.385 117.547 340.123 117.33 340.687 116.998C341.25 116.666 341.61 116.237 341.71 115.777C341.811 115.317 341.646 114.85 341.243 114.449L332.61 105.855C332.446 105.693 332.402 105.499 332.487 105.318C332.571 105.136 332.778 104.981 333.061 104.887L335.319 104.138L335.346 104.13C336.17 104.617 337.273 104.916 338.452 104.972C339.169 105.167 339.959 105.258 340.751 105.239C341.544 105.22 342.317 105.09 343.004 104.862L344.237 106.089C344.401 106.252 344.445 106.446 344.36 106.627C344.276 106.809 344.069 106.964 343.786 107.058C342.287 107.557 340.585 107.819 338.853 107.817L343.83 112.772C344.647 113.585 345.045 114.514 344.98 115.452C344.914 116.39 344.387 117.297 343.46 118.07C342.532 118.843 341.243 119.448 339.741 119.816C338.238 120.184 336.585 120.3 334.973 120.15C333.446 119.817 332.116 119.242 331.135 118.491C330.154 117.741 329.564 116.846 329.433 115.91C329.302 114.974 329.636 114.037 330.395 113.206C331.154 112.375 332.308 111.685 333.722 111.215L334.955 112.443C335.119 112.606 335.163 112.799 335.079 112.981C334.994 113.162 334.787 113.317 334.504 113.411C333.805 113.643 333.257 114 332.943 114.427C332.63 114.855 332.568 115.329 332.768 115.779C332.967 116.228 333.417 116.628 334.048 116.917C334.68 117.205 335.458 117.368 336.265 117.379Z" fill="white"/>
            </g>
        </g>
    </g>
    <g filter="url(#filter5_d_1412_265)">
        <g clip-path="url(#clip6_1412_265)">
            <rect width="89.2748" height="69.0254" rx="8" transform="matrix(0.949117 -0.314924 0.708728 0.705482 30.4609 102.449)" fill="white"/>
            <g clip-path="url(#clip7_1412_265)">
                <path d="M101.939 126.3L81.4612 123.147C75.2559 122.191 71.6218 118.574 73.2845 115.007L78.7714 103.239C80.4341 99.6727 86.7285 97.5842 92.9338 98.5397L113.411 101.693C119.617 102.649 123.251 106.266 121.588 109.832L116.101 121.601C114.363 125.092 108.068 127.18 101.939 126.3Z" fill="url(#paint5_linear_1412_265)"/>
                <g clip-path="url(#clip8_1412_265)">
                    <path d="M104.385 109.373L103.138 112.048L100.187 113.027L99.0963 115.367L97.6058 113.883L94.2865 114.985L87.8984 108.626L99.7004 104.71L104.385 109.373Z" fill="#9146FF"/>
                    <path d="M86.3092 108.023L84.7504 111.366L92.4161 118.997L96.8418 117.528L98.9711 119.648L100.53 116.304L103.48 115.325L106.286 109.307L100.324 103.373L86.3092 108.023ZM104.385 109.373L103.138 112.048L100.188 113.027L99.0964 115.367L97.6059 113.883L94.2866 114.985L87.8986 108.626L99.7006 104.71L104.385 109.373Z" fill="white"/>
                    <path d="M98.9782 106.928L97.5029 107.417L100.058 109.961L101.533 109.471L98.9782 106.928Z" fill="white"/>
                    <path d="M94.9215 108.274L93.4463 108.763L96.0015 111.307L97.4767 110.817L94.9215 108.274Z" fill="white"/>
                </g>
            </g>
        </g>
    </g>
    <defs>
        <filter id="filter0_d_1412_265" x="17.7065" y="156.055" width="212.313" height="133.075" filterUnits="userSpaceOnUse" color-interpolation-filters="sRGB">
            <feFlood flood-opacity="0" result="BackgroundImageFix"/>
            <feColorMatrix in="SourceAlpha" type="matrix" values="0 0 0 0 0 0 0 0 0 0 0 0 0 0 0 0 0 0 127 0" result="hardAlpha"/>
            <feOffset dy="11"/>
            <feGaussianBlur stdDeviation="6.5"/>
            <feComposite in2="hardAlpha" operator="out"/>
            <feColorMatrix type="matrix" values="0 0 0 0 0.341176 0 0 0 0 0.25098 0 0 0 0 0.717647 0 0 0 0.03 0"/>
            <feBlend mode="normal" in2="BackgroundImageFix" result="effect1_dropShadow_1412_265"/>
            <feBlend mode="normal" in="SourceGraphic" in2="effect1_dropShadow_1412_265" result="shape"/>
        </filter>
        <filter id="filter1_d_1412_265" x="154.01" y="110.074" width="140.318" height="91.6996" filterUnits="userSpaceOnUse" color-interpolation-filters="sRGB">
            <feFlood flood-opacity="0" result="BackgroundImageFix"/>
            <feColorMatrix in="SourceAlpha" type="matrix" values="0 0 0 0 0 0 0 0 0 0 0 0 0 0 0 0 0 0 127 0" result="hardAlpha"/>
            <feOffset dy="11"/>
            <feGaussianBlur stdDeviation="6.5"/>
            <feComposite in2="hardAlpha" operator="out"/>
            <feColorMatrix type="matrix" values="0 0 0 0 0.341176 0 0 0 0 0.25098 0 0 0 0 0.717647 0 0 0 0.03 0"/>
            <feBlend mode="normal" in2="BackgroundImageFix" result="effect1_dropShadow_1412_265"/>
            <feBlend mode="normal" in="SourceGraphic" in2="effect1_dropShadow_1412_265" result="shape"/>
        </filter>
        <filter id="filter2_d_1412_265" x="96.2393" y="0" width="207.025" height="130.036" filterUnits="userSpaceOnUse" color-interpolation-filters="sRGB">
            <feFlood flood-opacity="0" result="BackgroundImageFix"/>
            <feColorMatrix in="SourceAlpha" type="matrix" values="0 0 0 0 0 0 0 0 0 0 0 0 0 0 0 0 0 0 127 0" result="hardAlpha"/>
            <feOffset dy="11"/>
            <feGaussianBlur stdDeviation="6.5"/>
            <feComposite in2="hardAlpha" operator="out"/>
            <feColorMatrix type="matrix" values="0 0 0 0 0.341176 0 0 0 0 0.25098 0 0 0 0 0.717647 0 0 0 0.03 0"/>
            <feBlend mode="normal" in2="BackgroundImageFix" result="effect1_dropShadow_1412_265"/>
            <feBlend mode="normal" in="SourceGraphic" in2="effect1_dropShadow_1412_265" result="shape"/>
        </filter>
        <filter id="filter3_d_1412_265" x="196.025" y="169.829" width="163.684" height="105.128" filterUnits="userSpaceOnUse" color-interpolation-filters="sRGB">
            <feFlood flood-opacity="0" result="BackgroundImageFix"/>
            <feColorMatrix in="SourceAlpha" type="matrix" values="0 0 0 0 0 0 0 0 0 0 0 0 0 0 0 0 0 0 127 0" result="hardAlpha"/>
            <feOffset dy="11"/>
            <feGaussianBlur stdDeviation="6.5"/>
            <feComposite in2="hardAlpha" operator="out"/>
            <feColorMatrix type="matrix" values="0 0 0 0 0.341176 0 0 0 0 0.25098 0 0 0 0 0.717647 0 0 0 0.03 0"/>
            <feBlend mode="normal" in2="BackgroundImageFix" result="effect1_dropShadow_1412_265"/>
            <feBlend mode="normal" in="SourceGraphic" in2="effect1_dropShadow_1412_265" result="shape"/>
        </filter>
        <filter id="filter4_d_1412_265" x="245.393" y="64.9963" width="184.296" height="116.974" filterUnits="userSpaceOnUse" color-interpolation-filters="sRGB">
            <feFlood flood-opacity="0" result="BackgroundImageFix"/>
            <feColorMatrix in="SourceAlpha" type="matrix" values="0 0 0 0 0 0 0 0 0 0 0 0 0 0 0 0 0 0 127 0" result="hardAlpha"/>
            <feOffset dy="11"/>
            <feGaussianBlur stdDeviation="6.5"/>
            <feComposite in2="hardAlpha" operator="out"/>
            <feColorMatrix type="matrix" values="0 0 0 0 0.341176 0 0 0 0 0.25098 0 0 0 0 0.717647 0 0 0 0.03 0"/>
            <feBlend mode="normal" in2="BackgroundImageFix" result="effect1_dropShadow_1412_265"/>
            <feBlend mode="normal" in="SourceGraphic" in2="effect1_dropShadow_1412_265" result="shape"/>
        </filter>
        <filter id="filter5_d_1412_265" x="17.4609" y="72.3345" width="159.652" height="102.811" filterUnits="userSpaceOnUse" color-interpolation-filters="sRGB">
            <feFlood flood-opacity="0" result="BackgroundImageFix"/>
            <feColorMatrix in="SourceAlpha" type="matrix" values="0 0 0 0 0 0 0 0 0 0 0 0 0 0 0 0 0 0 127 0" result="hardAlpha"/>
            <feOffset dy="11"/>
            <feGaussianBlur stdDeviation="6.5"/>
            <feComposite in2="hardAlpha" operator="out"/>
            <feColorMatrix type="matrix" values="0 0 0 0 0.341176 0 0 0 0 0.25098 0 0 0 0 0.717647 0 0 0 0.03 0"/>
            <feBlend mode="normal" in2="BackgroundImageFix" result="effect1_dropShadow_1412_265"/>
            <feBlend mode="normal" in="SourceGraphic" in2="effect1_dropShadow_1412_265" result="shape"/>
        </filter>
        <linearGradient id="paint0_linear_1412_265" x1="102.346" y1="190.008" x2="124.271" y2="256.087" gradientUnits="userSpaceOnUse">
            <stop offset="0.0011048" stop-color="#FBE18A"/>
            <stop offset="0.2094" stop-color="#FCBB45"/>
            <stop offset="0.3765" stop-color="#F75274"/>
            <stop offset="0.5238" stop-color="#D53692"/>
            <stop offset="0.7394" stop-color="#8F39CE"/>
            <stop offset="1" stop-color="#5B4FE9"/>
        </linearGradient>
        <linearGradient id="paint1_linear_1412_265" x1="213.253" y1="133.955" x2="222.057" y2="160.488" gradientUnits="userSpaceOnUse">
            <stop stop-color="#FF5656"/>
            <stop offset="1" stop-color="#B60202"/>
        </linearGradient>
        <linearGradient id="paint2_linear_1412_265" x1="182.464" y1="36.6487" x2="196.405" y2="78.6634" gradientUnits="userSpaceOnUse">
            <stop stop-color="#33CCFF"/>
            <stop offset="1" stop-color="#337FFF"/>
        </linearGradient>
        <linearGradient id="paint3_linear_1412_265" x1="264.719" y1="198.182" x2="275.322" y2="230.137" gradientUnits="userSpaceOnUse">
            <stop stop-color="#FEFB01"/>
            <stop offset="1" stop-color="#FCBB45"/>
        </linearGradient>
        <linearGradient id="paint4_linear_1412_265" x1="312.39" y1="108.204" x2="356.989" y2="128.997" gradientUnits="userSpaceOnUse">
            <stop stop-color="#501432"/>
            <stop offset="1"/>
        </linearGradient>
        <linearGradient id="paint5_linear_1412_265" x1="76.0509" y1="109.127" x2="113.707" y2="126.683" gradientUnits="userSpaceOnUse">
            <stop stop-color="#9146FF"/>
            <stop offset="1" stop-color="#5406C7"/>
        </linearGradient>
        <clipPath id="clip0_1412_265">
            <rect width="51.1235" height="51.0317" fill="white" transform="matrix(0.949117 -0.314924 0.708728 0.705482 81.8091 201.766)"/>
        </clipPath>
        <clipPath id="clip1_1412_265">
            <rect width="31.3695" height="31.3131" fill="white" transform="matrix(0.949117 -0.314924 0.708728 0.705482 198.367 138.895)"/>
        </clipPath>
        <clipPath id="clip2_1412_265">
            <rect width="49.6727" height="49.5835" fill="white" transform="matrix(0.949117 -0.314924 0.708728 0.705482 158.892 44.4702)"/>
        </clipPath>
        <clipPath id="clip3_1412_265">
            <rect width="37.7799" height="37.712" fill="white" transform="matrix(0.949117 -0.314924 0.708728 0.705482 246.79 204.131)"/>
        </clipPath>
        <clipPath id="clip4_1412_265">
            <rect width="105.736" height="81.7527" rx="11" transform="matrix(0.949117 -0.314924 0.708728 0.705482 258.393 100.295)" fill="white"/>
        </clipPath>
        <clipPath id="clip5_1412_265">
            <rect width="57.2736" height="44.2827" fill="white" transform="matrix(0.949117 -0.314924 0.708728 0.705482 294.846 105.502)"/>
        </clipPath>
        <clipPath id="clip6_1412_265">
            <rect width="89.2748" height="69.0254" rx="8" transform="matrix(0.949117 -0.314924 0.708728 0.705482 30.4609 102.449)" fill="white"/>
        </clipPath>
        <clipPath id="clip7_1412_265">
            <rect width="48.3572" height="37.3888" fill="white" transform="matrix(0.949117 -0.314924 0.708728 0.705482 61.2388 106.846)"/>
        </clipPath>
        <clipPath id="clip8_1412_265">
            <rect width="18.6521" height="16.8249" fill="white" transform="matrix(0.949117 -0.314924 0.708728 0.705482 82.6211 109.247)"/>
        </clipPath>
    </defs>
</svg>
