<svg width="24" height="24" viewBox="0 0 24 24" fill="none" xmlns="http://www.w3.org/2000/svg">
    <path d="M22.0039 3.61133H18.5977C18.2915 2.10875 16.9599 0.974609 15.3682 0.974609C13.7765 0.974609 12.4448 2.10875 12.1386 3.61133H0.822266C0.458223 3.61133 0.163086 3.90646 0.163086 4.27051C0.163086 4.63455 0.458223 4.92969 0.822266 4.92969H12.1386C12.4448 6.43227 13.7765 7.56641 15.3682 7.56641C16.9599 7.56641 18.2915 6.43227 18.5977 4.92969H22.0039C22.3679 4.92969 22.6631 4.63455 22.6631 4.27051C22.6631 3.90646 22.3679 3.61133 22.0039 3.61133ZM15.3682 6.24805C14.2779 6.24805 13.3909 5.36123 13.3906 4.27108L13.3907 4.27051L13.3906 4.26994C13.3909 3.17979 14.2779 2.29297 15.3682 2.29297C16.4586 2.29297 17.3457 3.18009 17.3457 4.27051C17.3457 5.36092 16.4586 6.24805 15.3682 6.24805ZM22.0039 11.5654H10.6876C10.3814 10.0629 9.04971 8.92871 7.45801 8.92871C5.86631 8.92871 4.53468 10.0629 4.22842 11.5654H0.822266C0.458223 11.5654 0.163086 11.8606 0.163086 12.2246C0.163086 12.5887 0.458223 12.8838 0.822266 12.8838H4.22842C4.53463 14.3864 5.86631 15.5205 7.45801 15.5205C9.04971 15.5205 10.3813 14.3864 10.6876 12.8838H22.0039C22.3679 12.8838 22.6631 12.5887 22.6631 12.2246C22.6631 11.8606 22.3679 11.5654 22.0039 11.5654ZM7.45801 14.2021C6.36777 14.2021 5.48078 13.3153 5.48047 12.2252L5.48051 12.2246L5.48047 12.224C5.48078 11.1339 6.36777 10.2471 7.45801 10.2471C8.54842 10.2471 9.43555 11.1342 9.43555 12.2246C9.43555 13.315 8.54842 14.2021 7.45801 14.2021ZM22.0039 19.5195H18.5977C18.2915 18.017 16.9599 16.8828 15.3682 16.8828C13.7765 16.8828 12.4448 18.017 12.1386 19.5195H0.822266C0.458223 19.5195 0.163086 19.8147 0.163086 20.1787C0.163086 20.5428 0.458223 20.8379 0.822266 20.8379H12.1386C12.4448 22.3405 13.7765 23.4746 15.3682 23.4746C16.9599 23.4746 18.2915 22.3405 18.5977 20.8379H22.0039C22.3679 20.8379 22.6631 20.5428 22.6631 20.1787C22.6631 19.8147 22.3679 19.5195 22.0039 19.5195ZM15.3682 22.1562C14.2779 22.1562 13.3909 21.2694 13.3906 20.1793L13.3907 20.1787L13.3906 20.1781C13.3909 19.088 14.2779 18.2012 15.3682 18.2012C16.4586 18.2012 17.3457 19.0883 17.3457 20.1787C17.3457 21.2691 16.4586 22.1562 15.3682 22.1562Z" fill="currentColor"/>
</svg>
