<svg width="15" height="15" viewBox="0 0 15 15" fill="none" xmlns="http://www.w3.org/2000/svg">
    <g clip-path="url(#clip0_778_6716)">
        <path d="M14.757 5.916C14.732 5.83904 14.686 5.77061 14.6242 5.71847C14.5623 5.66633 14.4871 5.63256 14.407 5.621L9.82599 4.955L7.77699 0.804998C7.74117 0.732698 7.68586 0.671844 7.61731 0.629298C7.54875 0.586753 7.46967 0.564209 7.38899 0.564209C7.3083 0.564209 7.22922 0.586753 7.16066 0.629298C7.09211 0.671844 7.0368 0.732698 7.00099 0.804998L4.95099 4.955L0.370986 5.621C0.291145 5.63269 0.216159 5.66646 0.154488 5.7185C0.0928168 5.77054 0.0469147 5.83878 0.0219593 5.91552C-0.00299606 5.99226 -0.00601161 6.07444 0.0132528 6.1528C0.0325172 6.23116 0.0732951 6.30258 0.130986 6.359L3.44599 9.591L2.66299 14.154C2.64947 14.2336 2.65845 14.3153 2.68892 14.39C2.7194 14.4648 2.77015 14.5295 2.83545 14.5769C2.90076 14.6243 2.97801 14.6526 3.0585 14.6584C3.13899 14.6642 3.21952 14.6475 3.29099 14.61L7.38899 12.456L11.486 14.61C11.5575 14.6476 11.6382 14.6644 11.7188 14.6585C11.7994 14.6526 11.8767 14.6243 11.9421 14.5767C12.0074 14.5292 12.0582 14.4643 12.0885 14.3894C12.1189 14.3145 12.1277 14.2326 12.114 14.153L11.332 9.591L14.647 6.359C14.7048 6.30273 14.7457 6.23144 14.7651 6.15317C14.7845 6.0749 14.7817 5.99276 14.757 5.916Z" fill="#F0C015"/>
    </g>
    <defs>
        <clipPath id="clip0_778_6716">
            <rect width="15" height="15" fill="white"/>
        </clipPath>
    </defs>
</svg>
