<svg viewBox="0 0 647 506" fill="none" xmlns="http://www.w3.org/2000/svg">
    <g filter="url(#filter0_d_676_8372)">
        <path fill-rule="evenodd" clip-rule="evenodd" d="M116.704 252.225C93.764 259.871 89.0291 279.93 106.128 297.027C115.065 305.963 119.452 321.48 107.463 325.476L75.3678 336.173C62.2691 340.539 59.5654 351.993 69.3289 361.755L176.906 469.323C186.669 479.086 205.203 483.461 218.302 479.095L406.239 416.454C419.338 412.089 422.042 400.635 412.278 390.872L304.701 283.305C294.938 273.542 276.404 269.167 263.305 273.533L231.21 284.231C219.221 288.227 198.137 278.275 189.201 269.339C172.102 252.241 139.644 244.579 116.704 252.225Z" fill="#2D2846"/>
        <g filter="url(#filter1_d_676_8372)">
            <g clip-path="url(#clip0_676_8372)">
                <circle cx="30.6479" cy="30.6479" r="30.6479" transform="matrix(0.948692 -0.316203 0.707138 0.707076 96.9166 256.609)" fill="#7852E4"/>
                <g filter="url(#filter2_ii_676_8372)">
                    <circle cx="9.51141" cy="9.51141" r="9.51141" transform="matrix(0.948692 -0.316203 0.707138 0.707076 128.301 261.592)" fill="#7852E4"/>
                </g>
                <g filter="url(#filter3_ii_676_8372)">
                    <circle cx="20.8723" cy="20.8723" r="20.8723" transform="matrix(0.948692 -0.316203 0.707138 0.707076 132.844 280.503)" fill="#7852E4"/>
                </g>
            </g>
        </g>
        <rect width="151.78" height="14.5942" rx="7.29712" transform="matrix(0.948692 -0.316203 0.707138 0.707076 87.5463 354.129)" fill="#EDF0FF" fill-opacity="0.05"/>
        <rect width="14.5942" height="14.5942" rx="7.29712" transform="matrix(0.948692 -0.316203 0.707138 0.707076 270.998 292.984)" fill="#EDF0FF" fill-opacity="0.05"/>
        <g filter="url(#filter4_d_676_8372)">
            <rect width="94.8625" height="40.8638" rx="10" transform="matrix(0.948692 -0.316203 0.707138 0.707076 214.456 330.674)" fill="#EDF0FF" fill-opacity="0.05" shape-rendering="crispEdges"/>
        </g>
        <rect width="94.8625" height="40.8638" rx="10" transform="matrix(0.948692 -0.316203 0.707138 0.707076 107.155 373.735)" fill="#EDF0FF" fill-opacity="0.05"/>
        <rect width="207.968" height="14.5942" rx="7.29711" transform="matrix(0.948692 -0.316203 0.707138 0.707076 149.983 416.56)" fill="#EDF0FF" fill-opacity="0.05"/>
        <rect width="207.968" height="14.5942" rx="7.29711" transform="matrix(0.948692 -0.316203 0.707138 0.707076 168.559 435.135)" fill="#EDF0FF" fill-opacity="0.05"/>
        <rect width="156.888" height="14.5942" rx="7.29711" transform="matrix(0.948692 -0.316203 0.707138 0.707076 187.135 453.709)" fill="#EDF0FF" fill-opacity="0.05"/>
        <g filter="url(#filter5_d_676_8372)">
            <g clip-path="url(#clip1_676_8372)">
                <circle cx="11.907" cy="11.907" r="11.907" transform="matrix(0.996176 -0.265577 0.638508 0.727606 48.7031 374.871)" fill="#FF7DB1"/>
                <g filter="url(#filter6_ii_676_8372)">
                    <path d="M60.3414 380.183C59.4036 380.434 59.1307 381.192 59.731 381.878L64.0897 386.845C64.6916 387.531 65.9406 387.884 66.8796 387.633C67.8185 387.383 68.0918 386.624 67.4899 385.938L63.1312 380.971C62.5286 380.286 61.2806 379.934 60.3414 380.183ZM74.4516 377.108C74.0994 376.987 73.7271 376.913 73.3611 376.892C72.995 376.871 72.6442 376.903 72.3335 376.986L69.8314 377.653C69.2069 376.401 68.0021 375.295 66.6471 374.759C66.2712 374.601 65.861 374.497 65.4517 374.457C65.0424 374.417 64.6464 374.443 64.2977 374.531C63.3058 374.796 63.8948 375.467 64.3247 375.957C65.1723 376.923 66.2918 378.597 63.7664 380.047C63.6903 380.089 63.6435 380.15 63.633 380.22C63.6226 380.289 63.6493 380.365 63.7089 380.434L68.0693 385.403C68.8217 386.259 70.3798 386.699 71.5524 386.388L77.7891 384.725C78.8149 384.452 79.2235 383.681 78.76 382.896L76.0258 378.256C75.8855 378.018 75.6718 377.792 75.3997 377.593C75.1277 377.395 74.804 377.229 74.4516 377.108Z" fill="#FF7DB1"/>
                </g>
            </g>
        </g>
        <g filter="url(#filter7_d_676_8372)">
            <g clip-path="url(#clip2_676_8372)">
                <circle cx="15.5267" cy="15.5267" r="15.5267" transform="matrix(0.664652 -0.530394 0.978918 0.564481 78.4723 322.25)" fill="#FF7DB1"/>
                <g filter="url(#filter8_ii_676_8372)">
                    <path d="M95.3554 325.223C94.5404 325.876 94.8534 326.966 96.0549 327.66L104.769 332.685C105.972 333.379 107.61 333.413 108.427 332.761C109.244 332.109 108.93 331.018 107.727 330.324L99.0131 325.299C97.8097 324.607 96.1735 324.573 95.3554 325.223ZM108.183 316.329C107.704 316.291 107.241 316.322 106.827 316.42C106.414 316.518 106.059 316.681 105.789 316.897L103.612 318.634C101.93 317.205 99.7356 316.167 97.8364 315.929C97.3013 315.85 96.7732 315.855 96.2976 315.944C95.822 316.032 95.4131 316.202 95.1062 316.438C94.2431 317.127 95.4207 317.806 96.2802 318.301C97.9747 319.279 100.532 321.092 98.9596 323.866C98.9107 323.948 98.9085 324.043 98.9534 324.139C98.9983 324.234 99.0878 324.324 99.2081 324.395L107.926 329.422C109.428 330.287 111.471 330.329 112.492 329.516L117.918 325.186C118.811 324.474 118.635 323.322 117.502 322.449L110.812 317.296C110.469 317.031 110.055 316.807 109.601 316.64C109.147 316.473 108.663 316.367 108.183 316.329Z" fill="#FF7DB1"/>
                </g>
            </g>
        </g>
        <g filter="url(#filter9_d_676_8372)">
            <g clip-path="url(#clip3_676_8372)">
                <circle cx="19.7022" cy="19.7022" r="19.7022" transform="matrix(0.577557 -0.577209 1.03271 0.516498 71.8296 361.267)" fill="#FF7DB1"/>
                <g filter="url(#filter10_ii_676_8372)">
                    <path d="M93.2692 363.856C92.3709 364.757 92.946 366.138 94.5546 366.945L106.22 372.779C107.83 373.584 109.866 373.507 110.767 372.607C111.668 371.707 111.092 370.324 109.481 369.519L97.8165 363.685C96.2058 362.881 94.1716 362.957 93.2692 363.856ZM107.644 351.45C107.044 351.436 106.475 351.51 105.979 351.667C105.483 351.824 105.071 352.06 104.774 352.358L102.373 354.757C100.042 353.038 97.1442 351.863 94.7491 351.696C94.0722 351.633 93.4184 351.679 92.844 351.828C92.2695 351.977 91.7918 352.226 91.4519 352.553C90.5003 353.504 92.0767 354.292 93.2271 354.868C95.4955 356.002 98.9776 358.151 97.5041 361.842C97.4574 361.95 97.4712 362.074 97.5432 362.194C97.6153 362.313 97.7417 362.423 97.9029 362.505L109.572 368.341C111.584 369.345 114.123 369.249 115.25 368.127L121.233 362.148C122.217 361.164 121.802 359.692 120.247 358.651L111.069 352.502C110.598 352.186 110.047 351.928 109.455 351.746C108.863 351.564 108.245 351.463 107.644 351.45Z" fill="#FF7DB1"/>
                </g>
            </g>
        </g>
    </g>
    <g filter="url(#filter11_d_676_8372)">
        <rect width="69.4539" height="53.7969" rx="11" transform="matrix(0.948692 -0.316203 0.707138 0.707076 474 317.961)" fill="#2D2846"/>
        <g clip-path="url(#clip4_676_8372)">
            <path opacity="0.9" d="M530.772 336.28L517.409 333.126C513.36 332.17 510.593 329.403 511.183 326.901L513.133 318.642C513.723 316.14 517.436 314.903 521.485 315.859L534.848 319.013C538.897 319.969 541.664 322.736 541.074 325.238L539.124 333.496C538.476 335.941 534.764 337.178 530.772 336.28Z" fill="url(#paint0_linear_676_8372)"/>
            <path fill-rule="evenodd" clip-rule="evenodd" d="M524.485 326.694L529.039 331.247C529.096 331.305 529.231 331.337 529.309 331.311L531.551 330.564C531.629 330.538 531.648 330.455 531.591 330.397L526.922 325.728L528.546 325.187C528.623 325.161 528.643 325.078 528.585 325.02L527.356 323.585C527.299 323.527 527.164 323.496 527.086 323.521L525.307 324.114L524.328 323.134C524.097 322.904 524.156 322.653 524.465 322.55L525.703 322.138C525.78 322.112 525.8 322.029 525.742 321.971L524.359 320.588C524.301 320.53 524.166 320.498 524.089 320.524L521.923 321.246C520.686 321.658 520.353 322.768 521.333 323.748L522.658 325.074L521.498 325.461C521.421 325.486 521.401 325.57 521.459 325.627L522.842 327.011C522.9 327.068 523.035 327.1 523.112 327.075L524.272 326.688L524.33 326.746L524.485 326.694Z" fill="white"/>
        </g>
    </g>
    <g filter="url(#filter12_d_676_8372)">
        <rect width="92.6052" height="71.7292" rx="11" transform="matrix(0.948692 -0.316203 0.707138 0.707076 354 272.282)" fill="#2D2846"/>
        <g clip-path="url(#clip5_676_8372)">
            <path d="M429.696 296.707L411.879 292.501C406.479 291.226 402.79 287.538 403.578 284.201L406.177 273.19C406.965 269.853 411.914 268.204 417.313 269.478L435.131 273.684C440.53 274.959 444.219 278.648 443.432 281.984L440.832 292.995C439.968 296.255 435.018 297.905 429.696 296.707Z" fill="url(#paint1_linear_676_8372)"/>
            <path d="M424.433 277.147C423.814 277.353 423.786 277.875 424.171 278.259C424.632 278.721 425.455 278.856 425.97 278.684C426.589 278.478 426.694 278.033 426.233 277.572C425.772 277.111 425.052 276.941 424.433 277.147Z" fill="white"/>
            <path d="M420.173 279.899C417.802 280.69 417.303 282.803 419.071 284.57C420.839 286.338 424.258 287.145 426.63 286.355C429.001 285.564 429.5 283.451 427.732 281.684C425.965 279.916 422.545 279.109 420.173 279.899ZM425.477 285.202C423.93 285.718 421.77 285.208 420.617 284.055C419.465 282.902 419.78 281.567 421.326 281.052C422.873 280.536 425.033 281.046 426.186 282.199C427.339 283.352 427.023 284.686 425.477 285.202Z" fill="white"/>
            <path d="M433.517 288.568L426.506 290.905C423.618 291.867 419.479 290.89 417.327 288.738L412.1 283.512C409.948 281.36 410.552 278.802 413.439 277.84L420.451 275.503C423.338 274.541 427.478 275.518 429.63 277.67L434.856 282.895C436.932 284.971 436.405 287.605 433.517 288.568ZM414.412 278.95C412.35 279.638 412.033 281.383 413.493 282.843L418.72 288.069C420.257 289.606 423.06 290.209 425.019 289.556L432.031 287.219C434.093 286.531 434.41 284.786 432.95 283.326L427.723 278.1C426.186 276.563 423.383 275.96 421.424 276.613L414.412 278.95Z" fill="white"/>
        </g>
    </g>
    <g filter="url(#filter13_d_676_8372)">
        <g clip-path="url(#clip6_676_8372)">
            <path fill-rule="evenodd" clip-rule="evenodd" d="M224.737 78.2787C216.926 70.4686 202.099 66.9686 191.62 70.4613L100.974 100.674C90.4949 104.167 88.3319 113.33 96.1428 121.14L113.427 138.422L116.046 141.041L224.991 249.977C232.802 257.787 247.629 261.287 258.108 257.794L535.672 165.281C546.151 161.788 548.314 152.625 540.503 144.815L443.082 47.4021C435.271 39.592 420.444 36.092 409.965 39.5847L260.995 89.2372C250.516 92.7299 235.689 89.2299 227.878 81.4197L224.737 78.2787Z" fill="#2D2846"/>
            <mask id="mask0_676_8372" style="mask-type:alpha" maskUnits="userSpaceOnUse" x="82" y="33" width="473" height="231">
                <path fill-rule="evenodd" clip-rule="evenodd" d="M210.594 64.1372L82 106.998L113.495 138.49L113.495 138.49L238.95 263.934L554.462 158.773L429.007 33.3288L242.089 95.6294L210.594 64.1372Z" fill="#171032"/>
            </mask>
            <g mask="url(#mask0_676_8372)">
                <rect width="333.298" height="6.66634" rx="3.33317" transform="matrix(-0.707138 -0.707076 0.948691 -0.316203 281.468 306.449)" fill="url(#paint2_linear_676_8372)"/>
            </g>
            <path d="M515.295 172.073C503.739 160.518 489.243 150.094 472.634 141.397C456.026 132.699 437.629 125.898 418.496 121.381C399.363 116.864 379.867 114.721 361.122 115.073C342.377 115.425 324.749 118.266 309.246 123.433C293.743 128.6 280.668 135.993 270.767 145.189C260.867 154.384 254.334 165.203 251.543 177.027C248.752 188.851 249.757 201.449 254.5 214.102C259.243 226.754 267.632 239.214 279.188 250.768L302.763 242.911C293.515 233.663 286.801 223.692 283.005 213.566C279.209 203.441 278.405 193.358 280.639 183.896C282.873 174.433 288.101 165.774 296.024 158.415C303.948 151.056 314.412 145.14 326.819 141.004C339.226 136.869 353.333 134.596 368.335 134.314C383.337 134.032 398.939 135.747 414.251 139.362C429.564 142.977 444.286 148.42 457.578 155.38C470.87 162.341 482.472 170.683 491.72 179.931L515.295 172.073Z" fill="#F5F5FF" fill-opacity="0.1"/>
            <path d="M392.11 116.683C365.191 113.437 339.044 115.007 316.517 121.223C293.99 127.439 275.945 138.062 264.348 151.936C252.75 165.81 248.044 182.403 250.741 199.91C253.438 217.416 263.436 235.165 279.645 251.224L303.129 243.275C290.157 230.423 282.156 216.219 279.997 202.208C277.838 188.198 281.605 174.918 290.886 163.815C300.168 152.711 314.609 144.21 332.638 139.235C350.666 134.261 371.591 133.004 393.135 135.602L392.11 116.683Z" fill="url(#paint3_linear_676_8372)"/>
            <g filter="url(#filter14_d_676_8372)">
                <g filter="url(#filter15_b_676_8372)">
                    <circle cx="18.8918" cy="18.8918" r="18.8918" transform="matrix(0.948692 -0.316203 0.707138 0.707076 353.827 117.934)" fill="white"/>
                </g>
                <circle cx="11.8074" cy="11.8074" r="11.8074" transform="matrix(0.948692 -0.316203 0.707138 0.707076 365.558 120.704)" fill="#FF7DB1"/>
                <circle cx="2.96282" cy="2.96282" r="2.96282" transform="matrix(0.948692 -0.316203 0.707138 0.707076 380.281 124.198)" fill="white"/>
            </g>
            <g filter="url(#filter16_d_676_8372)">
                <rect width="236.285" height="37.0352" rx="18.5176" transform="matrix(0.948692 -0.316203 0.707138 0.707076 242.383 206.472)" fill="#45405B" shape-rendering="crispEdges"/>
                <g clip-path="url(#clip7_676_8372)">
                    <path d="M281.778 210.871C281.714 210.855 281.648 210.847 281.584 210.848C281.521 210.849 281.461 210.858 281.408 210.876C281.356 210.893 281.312 210.918 281.278 210.949C281.245 210.981 281.223 211.017 281.214 211.057C281.205 211.097 281.209 211.14 281.225 211.183C281.242 211.226 281.271 211.268 281.311 211.307C281.351 211.345 281.4 211.38 281.457 211.409C281.514 211.438 281.577 211.46 281.642 211.475C282.223 211.609 282.782 211.814 283.287 212.077C283.792 212.34 284.232 212.656 284.581 213.008C284.942 213.368 284.079 214.353 281.908 215.077C279.736 215.801 277.827 215.739 277.466 215.378C277.116 215.031 276.863 214.655 276.72 214.274C276.577 213.892 276.547 213.513 276.633 213.157C276.643 213.117 276.641 213.074 276.626 213.032C276.61 212.989 276.583 212.946 276.544 212.907C276.505 212.868 276.457 212.832 276.401 212.803C276.344 212.773 276.282 212.75 276.217 212.735C276.153 212.72 276.087 212.712 276.023 212.714C275.96 212.715 275.9 212.725 275.848 212.743C275.796 212.761 275.752 212.786 275.72 212.818C275.687 212.849 275.666 212.886 275.657 212.926C275.553 213.362 275.589 213.826 275.764 214.292C275.938 214.758 276.249 215.217 276.676 215.643C277.633 216.599 280.389 216.369 282.497 215.666C284.605 214.964 286.329 213.701 285.372 212.744C284.945 212.315 284.407 211.928 283.79 211.606C283.173 211.285 282.489 211.034 281.778 210.871Z" fill="white"/>
                    <path d="M278.962 212.131C279.509 211.949 279.923 211.65 280.151 211.271C280.38 210.893 280.412 210.453 280.245 210.006C280.077 209.559 279.717 209.127 279.211 208.762C278.704 208.398 278.073 208.118 277.397 207.959C276.722 207.799 276.033 207.767 275.416 207.866C274.8 207.966 274.284 208.192 273.935 208.517C273.585 208.841 273.418 209.25 273.453 209.69C273.488 210.131 273.724 210.583 274.132 210.991C274.68 211.538 275.496 211.965 276.401 212.178C277.307 212.392 278.227 212.375 278.962 212.131ZM275.426 208.596C275.817 208.466 276.285 208.425 276.772 208.478C277.259 208.532 277.743 208.677 278.161 208.897C278.58 209.116 278.915 209.399 279.125 209.71C279.334 210.021 279.409 210.347 279.338 210.645C279.268 210.943 279.056 211.201 278.73 211.385C278.403 211.57 277.977 211.673 277.504 211.682C277.031 211.691 276.534 211.605 276.074 211.435C275.615 211.265 275.214 211.019 274.923 210.728C274.533 210.337 274.367 209.893 274.461 209.493C274.556 209.094 274.903 208.771 275.426 208.596Z" fill="white"/>
                </g>
                <path d="M297.572 209.027L296.127 207.598L292.248 208.891L291.452 208.095L291.147 203.113L292.935 202.517L296.681 206.263L297.76 205.903L298.612 206.77L297.544 207.126L298.977 208.559L297.572 209.027ZM292.802 207.555L295.275 206.731L292.627 204.083L292.802 207.555Z" fill="white"/>
                <path d="M306.4 206.174C305.935 206.329 305.446 206.399 304.931 206.384C304.419 206.361 303.897 206.259 303.367 206.079C302.836 205.898 302.313 205.64 301.799 205.305C301.284 204.97 300.783 204.56 300.297 204.074C299.794 203.571 299.424 203.106 299.187 202.679C298.949 202.251 298.83 201.863 298.83 201.513C298.837 201.16 298.961 200.854 299.202 200.595C299.443 200.336 299.788 200.132 300.238 199.982C300.702 199.827 301.188 199.758 301.695 199.776C302.202 199.793 302.721 199.892 303.251 200.073C303.782 200.253 304.305 200.511 304.819 200.846C305.334 201.181 305.835 201.591 306.321 202.077C306.818 202.575 307.184 203.041 307.42 203.476C307.663 203.909 307.781 204.302 307.774 204.655C307.774 205.005 307.658 205.308 307.424 205.564C307.199 205.818 306.857 206.021 306.4 206.174ZM305.523 205.282C305.763 205.202 305.941 205.09 306.058 204.947C306.174 204.804 306.217 204.622 306.187 204.401C306.156 204.181 306.038 203.918 305.834 203.614C305.624 203.304 305.315 202.945 304.907 202.537C304.505 202.135 304.126 201.807 303.772 201.553C303.412 201.293 303.077 201.103 302.767 200.983C302.452 200.857 302.157 200.787 301.884 200.774C301.611 200.761 301.355 200.794 301.115 200.874C300.867 200.957 300.685 201.069 300.569 201.213C300.452 201.356 300.409 201.538 300.44 201.758C300.465 201.973 300.58 202.233 300.784 202.537C300.989 202.842 301.295 203.198 301.703 203.606C302.111 204.013 302.494 204.347 302.854 204.607C303.209 204.861 303.544 205.051 303.859 205.177C304.175 205.303 304.469 205.372 304.742 205.386C305.015 205.399 305.276 205.364 305.523 205.282Z" fill="white"/>
                <path d="M313.163 203.92C312.699 204.074 312.209 204.145 311.695 204.13C311.182 204.107 310.661 204.005 310.13 203.824C309.6 203.644 309.077 203.386 308.562 203.051C308.047 202.716 307.547 202.306 307.061 201.82C306.558 201.317 306.188 200.852 305.95 200.424C305.713 199.997 305.594 199.608 305.594 199.258C305.601 198.906 305.725 198.6 305.966 198.341C306.206 198.082 306.551 197.878 307.001 197.728C307.466 197.573 307.952 197.504 308.459 197.521C308.966 197.539 309.484 197.638 310.015 197.818C310.545 197.999 311.068 198.257 311.583 198.592C312.098 198.927 312.598 199.337 313.084 199.823C313.582 200.32 313.948 200.787 314.184 201.222C314.427 201.655 314.545 202.048 314.537 202.4C314.538 202.75 314.421 203.054 314.188 203.31C313.962 203.564 313.621 203.767 313.163 203.92ZM312.286 203.028C312.526 202.948 312.705 202.836 312.821 202.693C312.938 202.55 312.981 202.368 312.95 202.147C312.919 201.927 312.802 201.664 312.597 201.36C312.387 201.05 312.078 200.691 311.67 200.283C311.268 199.881 310.89 199.553 310.536 199.298C310.176 199.038 309.841 198.848 309.531 198.728C309.215 198.603 308.921 198.533 308.648 198.52C308.375 198.507 308.118 198.54 307.878 198.62C307.631 198.702 307.449 198.815 307.332 198.958C307.216 199.101 307.173 199.283 307.203 199.504C307.229 199.719 307.343 199.979 307.548 200.283C307.752 200.587 308.058 200.943 308.466 201.351C308.874 201.759 309.258 202.093 309.618 202.353C309.972 202.607 310.307 202.797 310.623 202.923C310.938 203.049 311.233 203.118 311.506 203.131C311.779 203.145 312.039 203.11 312.286 203.028Z" fill="white"/>
                <path d="M319.927 201.665C319.462 201.82 318.973 201.89 318.458 201.875C317.946 201.853 317.424 201.751 316.894 201.57C316.363 201.389 315.84 201.132 315.326 200.797C314.811 200.462 314.31 200.051 313.824 199.565C313.321 199.063 312.951 198.597 312.714 198.17C312.476 197.743 312.357 197.354 312.357 197.004C312.364 196.652 312.488 196.346 312.729 196.087C312.97 195.828 313.315 195.623 313.765 195.474C314.229 195.319 314.715 195.25 315.222 195.267C315.729 195.284 316.248 195.383 316.778 195.564C317.309 195.745 317.832 196.003 318.346 196.337C318.861 196.672 319.362 197.083 319.848 197.569C320.345 198.066 320.711 198.532 320.947 198.968C321.19 199.401 321.308 199.793 321.301 200.146C321.301 200.496 321.185 200.799 320.951 201.056C320.726 201.31 320.384 201.513 319.927 201.665ZM319.05 200.773C319.29 200.693 319.468 200.582 319.585 200.439C319.701 200.295 319.744 200.114 319.713 199.893C319.683 199.672 319.565 199.41 319.361 199.105C319.151 198.796 318.842 198.437 318.434 198.029C318.032 197.627 317.653 197.298 317.299 197.044C316.939 196.784 316.604 196.594 316.294 196.474C315.979 196.348 315.684 196.279 315.411 196.265C315.138 196.252 314.882 196.286 314.642 196.366C314.394 196.448 314.212 196.561 314.096 196.704C313.979 196.847 313.936 197.029 313.967 197.25C313.992 197.465 314.107 197.724 314.311 198.029C314.516 198.333 314.822 198.689 315.23 199.097C315.638 199.505 316.021 199.839 316.381 200.099C316.736 200.353 317.071 200.543 317.386 200.669C317.702 200.794 317.996 200.864 318.269 200.877C318.542 200.89 318.803 200.856 319.05 200.773Z" fill="white"/>
                <path d="M399.49 165.281L408.918 174.708L410.816 174.076L401.388 164.648L399.49 165.281Z" fill="#FF7DB1" mask="url(#path-41-inside-1_676_8372)"/>
                <g clip-path="url(#clip8_676_8372)">
                    <path d="M424.592 164.377C425.379 164.115 425.9 163.631 426.041 163.031C426.183 162.432 425.933 161.766 425.347 161.18C424.761 160.594 423.887 160.136 422.916 159.907C421.946 159.678 420.959 159.696 420.173 159.958L417.209 160.946C417.104 160.981 417.034 161.046 417.015 161.126C416.996 161.206 417.03 161.295 417.108 161.373L420.643 164.908L419.458 165.303C419.353 165.338 419.283 165.403 419.264 165.483C419.246 165.563 419.279 165.651 419.357 165.73C419.435 165.808 419.552 165.869 419.681 165.899C419.81 165.93 419.942 165.927 420.047 165.892L421.233 165.497L421.822 166.086L420.636 166.482C420.531 166.517 420.462 166.581 420.443 166.661C420.424 166.741 420.457 166.83 420.535 166.908C420.614 166.986 420.73 167.047 420.86 167.078C420.989 167.108 421.121 167.106 421.225 167.071L422.411 166.676L423.59 167.854C423.668 167.932 423.784 167.993 423.914 168.024C424.043 168.054 424.175 168.052 424.28 168.017C424.384 167.982 424.454 167.917 424.473 167.837C424.492 167.757 424.458 167.669 424.38 167.59L423.202 166.412L425.573 165.622C425.678 165.587 425.748 165.522 425.767 165.442C425.785 165.362 425.752 165.273 425.674 165.195C425.596 165.117 425.479 165.056 425.35 165.026C425.22 164.995 425.089 164.997 424.984 165.032L422.612 165.823L422.023 165.234L424.592 164.377ZM418.193 161.404L420.762 160.547C421.339 160.355 422.063 160.342 422.774 160.51C423.486 160.678 424.127 161.013 424.557 161.443C424.986 161.873 425.17 162.361 425.066 162.801C424.962 163.241 424.58 163.596 424.003 163.788L421.434 164.644L418.193 161.404Z" fill="white"/>
                </g>
                <path d="M439.579 161.695L435.363 157.48L433.362 158.147L432.566 157.351L432.892 157.243C433.432 157.063 433.753 156.829 433.855 156.542C433.957 156.254 433.874 155.951 433.604 155.631L434.942 155.185L440.984 161.227L439.579 161.695Z" fill="white"/>
                <path d="M447.95 158.995C447.485 159.15 446.996 159.22 446.481 159.205C445.969 159.182 445.447 159.08 444.917 158.9C444.386 158.719 443.864 158.461 443.349 158.126C442.834 157.791 442.333 157.381 441.847 156.895C441.345 156.392 440.974 155.927 440.737 155.499C440.499 155.072 440.381 154.683 440.38 154.333C440.388 153.981 440.511 153.675 440.752 153.416C440.993 153.157 441.338 152.953 441.788 152.803C442.253 152.648 442.738 152.579 443.245 152.596C443.752 152.614 444.271 152.713 444.802 152.893C445.332 153.074 445.855 153.332 446.37 153.667C446.884 154.002 447.385 154.412 447.871 154.898C448.368 155.395 448.735 155.862 448.97 156.297C449.213 156.73 449.331 157.123 449.324 157.475C449.324 157.825 449.208 158.129 448.974 158.385C448.749 158.639 448.407 158.842 447.95 158.995ZM447.073 158.103C447.313 158.023 447.491 157.911 447.608 157.768C447.724 157.625 447.767 157.443 447.737 157.222C447.706 157.002 447.588 156.739 447.384 156.435C447.174 156.125 446.865 155.766 446.457 155.358C446.055 154.956 445.677 154.628 445.322 154.373C444.962 154.113 444.627 153.923 444.317 153.803C444.002 153.678 443.707 153.608 443.434 153.595C443.161 153.582 442.905 153.615 442.665 153.695C442.418 153.777 442.236 153.89 442.119 154.033C442.002 154.176 441.959 154.358 441.99 154.579C442.015 154.794 442.13 155.054 442.334 155.358C442.539 155.662 442.845 156.018 443.253 156.426C443.661 156.834 444.045 157.168 444.404 157.428C444.759 157.682 445.094 157.872 445.409 157.998C445.725 158.124 446.019 158.193 446.292 158.206C446.565 158.22 446.826 158.185 447.073 158.103Z" fill="white"/>
                <path d="M454.714 156.74C454.249 156.895 453.759 156.965 453.245 156.951C452.732 156.928 452.211 156.826 451.68 156.645C451.15 156.464 450.627 156.207 450.112 155.872C449.597 155.537 449.097 155.126 448.611 154.64C448.108 154.138 447.738 153.673 447.5 153.245C447.263 152.818 447.144 152.429 447.144 152.079C447.151 151.727 447.275 151.421 447.516 151.162C447.756 150.903 448.102 150.698 448.551 150.549C449.016 150.394 449.502 150.325 450.009 150.342C450.516 150.359 451.034 150.458 451.565 150.639C452.096 150.82 452.618 151.078 453.133 151.412C453.648 151.747 454.148 152.158 454.634 152.644C455.132 153.141 455.498 153.607 455.734 154.043C455.977 154.476 456.095 154.868 456.087 155.221C456.088 155.571 455.971 155.874 455.738 156.131C455.512 156.385 455.171 156.588 454.714 156.74ZM453.837 155.848C454.076 155.768 454.255 155.657 454.371 155.514C454.488 155.37 454.531 155.189 454.5 154.968C454.469 154.747 454.352 154.485 454.147 154.18C453.937 153.871 453.628 153.512 453.221 153.104C452.818 152.702 452.44 152.373 452.086 152.119C451.726 151.859 451.391 151.669 451.081 151.549C450.765 151.423 450.471 151.354 450.198 151.341C449.925 151.327 449.668 151.361 449.428 151.441C449.181 151.523 448.999 151.636 448.882 151.779C448.766 151.922 448.723 152.104 448.754 152.325C448.779 152.54 448.894 152.799 449.098 153.104C449.302 153.408 449.608 153.764 450.016 154.172C450.424 154.58 450.808 154.914 451.168 155.174C451.522 155.428 451.857 155.618 452.173 155.744C452.488 155.869 452.783 155.939 453.056 155.952C453.329 155.965 453.589 155.931 453.837 155.848Z" fill="white"/>
                <path d="M461.477 154.486C461.012 154.641 460.523 154.711 460.008 154.696C459.496 154.673 458.974 154.572 458.444 154.391C457.913 154.21 457.391 153.952 456.876 153.617C456.361 153.283 455.86 152.872 455.374 152.386C454.872 151.883 454.501 151.418 454.264 150.991C454.026 150.564 453.907 150.175 453.907 149.825C453.914 149.472 454.038 149.167 454.279 148.908C454.52 148.649 454.865 148.444 455.315 148.294C455.779 148.139 456.265 148.071 456.772 148.088C457.279 148.105 457.798 148.204 458.328 148.385C458.859 148.565 459.382 148.823 459.897 149.158C460.411 149.493 460.912 149.904 461.398 150.39C461.895 150.887 462.262 151.353 462.497 151.789C462.74 152.221 462.858 152.614 462.851 152.967C462.851 153.317 462.735 153.62 462.501 153.876C462.276 154.13 461.934 154.334 461.477 154.486ZM460.6 153.594C460.84 153.514 461.018 153.403 461.135 153.259C461.251 153.116 461.294 152.934 461.264 152.714C461.233 152.493 461.115 152.23 460.911 151.926C460.701 151.616 460.392 151.257 459.984 150.85C459.582 150.447 459.204 150.119 458.849 149.865C458.489 149.605 458.154 149.415 457.844 149.295C457.529 149.169 457.234 149.099 456.961 149.086C456.688 149.073 456.432 149.106 456.192 149.186C455.945 149.269 455.763 149.382 455.646 149.525C455.529 149.668 455.486 149.85 455.517 150.07C455.542 150.285 455.657 150.545 455.861 150.849C456.066 151.154 456.372 151.51 456.78 151.918C457.188 152.325 457.571 152.659 457.931 152.919C458.286 153.174 458.621 153.364 458.936 153.489C459.252 153.615 459.546 153.685 459.819 153.698C460.092 153.711 460.353 153.676 460.6 153.594Z" fill="white"/>
                <rect x="1.65583" y="0.390873" width="234.285" height="35.0352" rx="17.5176" transform="matrix(0.948692 -0.316203 0.707138 0.707076 242.192 207.11)" stroke="#FF7DB1" stroke-width="2" shape-rendering="crispEdges"/>
            </g>
            <g clip-path="url(#clip9_676_8372)">
                <path d="M128.486 106.169L120.756 108.745C118.631 109.453 118.188 111.33 119.772 112.914L125.534 118.675C127.118 120.259 130.154 120.976 132.279 120.267L140.009 117.691C142.134 116.983 142.577 115.106 140.993 113.522L135.231 107.761C133.647 106.177 130.611 105.46 128.486 106.169ZM139.704 113.952C140.763 115.01 140.47 116.257 139.048 116.731L131.319 119.307C129.898 119.78 127.881 119.304 126.822 118.245L121.06 112.484C120.001 111.425 120.296 110.179 121.716 109.705L129.446 107.129C130.867 106.655 132.884 107.132 133.943 108.191L139.704 113.952Z" fill="white"/>
                <path d="M132.169 109.422C132.703 109.244 132.813 108.777 132.415 108.38C132.017 107.982 131.262 107.804 130.729 107.982C130.195 108.159 130.085 108.626 130.483 109.024C130.88 109.421 131.636 109.6 132.169 109.422Z" fill="white"/>
                <path d="M127.502 110.337C125.367 111.049 124.926 112.915 126.518 114.506C128.108 116.096 131.128 116.81 133.263 116.099C135.398 115.387 135.838 113.52 134.247 111.93C132.656 110.339 129.636 109.626 127.502 110.337ZM132.303 115.138C130.88 115.613 128.867 115.137 127.806 114.077C126.745 113.016 127.039 111.772 128.462 111.298C129.885 110.823 131.898 111.298 132.959 112.359C134.02 113.42 133.726 114.664 132.303 115.138Z" fill="white"/>
            </g>
            <path d="M147.297 111.072L141.188 104.963L142.672 104.468L148.781 110.577L147.297 111.072Z" fill="white"/>
            <path d="M150.466 110.016L146.007 105.558L147.356 105.108L148.259 105.936L148.327 105.913C148.186 105.543 148.217 105.224 148.418 104.955C148.614 104.681 148.929 104.472 149.364 104.327C149.664 104.227 149.977 104.171 150.305 104.159C150.634 104.138 150.968 104.172 151.306 104.261C151.646 104.341 151.989 104.484 152.334 104.689C152.681 104.886 153.022 105.152 153.358 105.488L156.031 108.161L154.626 108.629L152.179 106.182C151.899 105.903 151.625 105.689 151.356 105.54C151.082 105.386 150.807 105.295 150.53 105.268C150.261 105.239 149.98 105.273 149.687 105.37C149.373 105.475 149.159 105.621 149.046 105.808C148.94 105.992 148.919 106.196 148.984 106.42C149.048 106.645 149.192 106.869 149.416 107.092L151.871 109.547L150.466 110.016Z" fill="white"/>
            <path d="M159.893 106.985C159.046 107.268 158.253 107.349 157.515 107.231C156.784 107.109 156.201 106.827 155.767 106.383L157.15 105.922C157.426 106.187 157.745 106.342 158.108 106.385C158.465 106.422 158.831 106.378 159.206 106.253C159.588 106.126 159.826 105.98 159.921 105.814C160.017 105.64 159.978 105.467 159.805 105.294C159.654 105.143 159.491 105.045 159.316 104.999C159.134 104.948 158.927 104.935 158.693 104.961C158.453 104.981 158.166 105.028 157.83 105.103C157.454 105.176 157.098 105.235 156.763 105.28C156.422 105.319 156.1 105.326 155.795 105.301C155.49 105.276 155.199 105.205 154.923 105.089C154.647 104.972 154.391 104.797 154.156 104.562C153.855 104.261 153.708 103.974 153.717 103.703C153.728 103.424 153.87 103.172 154.144 102.946C154.413 102.715 154.798 102.516 155.301 102.348C155.803 102.181 156.293 102.092 156.772 102.081C157.251 102.071 157.692 102.136 158.093 102.278C158.502 102.417 158.859 102.634 159.162 102.927L157.791 103.384C157.627 103.23 157.449 103.122 157.256 103.06C157.066 102.989 156.863 102.956 156.648 102.961C156.432 102.966 156.212 103.005 155.988 103.08C155.635 103.198 155.416 103.338 155.329 103.501C155.25 103.662 155.291 103.823 155.453 103.985C155.581 104.113 155.734 104.2 155.909 104.246C156.085 104.292 156.296 104.303 156.543 104.281C156.785 104.252 157.08 104.202 157.428 104.131C157.763 104.056 158.095 103.998 158.422 103.956C158.757 103.911 159.081 103.9 159.393 103.923C159.706 103.945 160.006 104.02 160.293 104.148C160.583 104.268 160.859 104.459 161.121 104.721C161.596 105.196 161.712 105.627 161.469 106.013C161.228 106.391 160.702 106.716 159.893 106.985Z" fill="white"/>
            <path d="M165.485 105.01C165.118 105.132 164.791 105.189 164.502 105.181C164.216 105.164 163.956 105.095 163.723 104.971C163.49 104.848 163.267 104.68 163.055 104.468L160.457 101.87L159.355 102.237L158.509 101.391L159.61 101.024L158.353 99.7668L159.639 99.1931L161.005 100.559L162.275 100.136L163.121 100.982L161.851 101.405L164.256 103.81C164.396 103.95 164.532 104.031 164.665 104.054C164.792 104.071 164.942 104.051 165.114 103.994L165.879 103.739L166.733 104.594L165.485 105.01Z" fill="white"/>
            <path d="M169.77 103.682C169.411 103.802 169.033 103.864 168.638 103.869C168.246 103.866 167.843 103.803 167.43 103.68C167.024 103.554 166.623 103.368 166.226 103.12C165.823 102.867 165.434 102.554 165.06 102.179C164.551 101.671 164.224 101.214 164.078 100.808C163.934 100.395 163.955 100.041 164.142 99.748C164.336 99.4524 164.673 99.2246 165.153 99.0647C165.482 98.9548 165.814 98.8965 166.147 98.8897C166.482 98.8749 166.81 98.9033 167.132 98.9749C167.453 99.0466 167.755 99.1583 168.037 99.3102L168.115 99.284L167.35 98.444L168.699 97.9943L173.158 102.452L171.752 102.921L170.923 102.091L170.844 102.117C170.975 102.439 170.952 102.74 170.775 103.023C170.593 103.3 170.258 103.52 169.77 103.682ZM169.444 102.651C169.781 102.539 170 102.388 170.1 102.198C170.207 102.006 170.225 101.799 170.153 101.577C170.076 101.349 169.934 101.132 169.727 100.926L169.266 100.465C169.054 100.252 168.799 100.073 168.502 99.9259C168.2 99.7734 167.881 99.6788 167.544 99.642C167.209 99.5971 166.873 99.6309 166.536 99.7433C166.236 99.8433 166.027 99.9838 165.908 100.165C165.789 100.346 165.775 100.567 165.866 100.827C165.951 101.082 166.158 101.374 166.488 101.704C166.806 102.022 167.138 102.269 167.483 102.444C167.829 102.62 168.167 102.723 168.498 102.754C168.829 102.785 169.144 102.751 169.444 102.651Z" fill="white"/>
            <path d="M178.522 102.642C178.02 102.809 177.529 102.898 177.05 102.909C176.577 102.925 176.131 102.869 175.712 102.741C175.307 102.615 174.958 102.426 174.665 102.173L176.015 101.724C176.156 101.825 176.322 101.901 176.51 101.949C176.707 101.996 176.913 102.013 177.13 102C177.353 101.993 177.577 101.952 177.802 101.877C178.139 101.764 178.38 101.635 178.525 101.49C178.677 101.343 178.73 101.176 178.684 100.99C178.646 100.802 178.506 100.588 178.266 100.347L177.445 99.5263L177.366 99.5525C177.496 99.8519 177.473 100.139 177.298 100.413C177.117 100.682 176.798 100.893 176.341 101.045C175.981 101.165 175.607 101.226 175.22 101.229C174.84 101.229 174.456 101.174 174.067 101.065C173.673 100.951 173.288 100.781 172.913 100.556C172.533 100.326 172.169 100.037 171.823 99.6907C171.359 99.227 171.068 98.8062 170.95 98.4284C170.834 98.0426 170.875 97.7086 171.073 97.4267C171.265 97.1392 171.601 96.9155 172.081 96.7556C172.53 96.6057 172.998 96.554 173.485 96.6005C173.978 96.6445 174.415 96.771 174.793 96.9799L174.872 96.9537L174.154 96.1761L175.515 95.7227L179.504 99.7114C179.862 100.069 180.092 100.394 180.195 100.688C180.312 100.984 180.314 101.251 180.203 101.49C180.097 101.733 179.898 101.949 179.605 102.136C179.325 102.326 178.964 102.495 178.522 102.642ZM176.034 100.064C176.348 99.9588 176.56 99.821 176.67 99.6505C176.781 99.4719 176.812 99.2829 176.762 99.0834C176.707 98.8784 176.597 98.688 176.431 98.5123L175.895 97.976C175.708 97.7997 175.481 97.6521 175.212 97.5332C174.937 97.4086 174.645 97.3311 174.334 97.3005C174.018 97.2643 173.703 97.2986 173.388 97.4036C173.096 97.501 172.888 97.6375 172.763 97.813C172.646 97.986 172.626 98.1902 172.702 98.4257C172.777 98.6612 172.96 98.9242 173.251 99.2147C173.547 99.5108 173.855 99.7394 174.176 99.9006C174.499 100.054 174.82 100.144 175.138 100.172C175.45 100.195 175.749 100.159 176.034 100.064Z" fill="white"/>
            <path d="M181.428 99.6957L176.97 95.2377L178.24 94.8142L179.054 95.5375L179.099 95.5226C178.949 95.1927 178.962 94.9163 179.139 94.6935C179.318 94.4626 179.602 94.2822 179.992 94.1522C180.059 94.1298 180.119 94.1098 180.172 94.0923C180.232 94.0723 180.288 94.0536 180.341 94.0361L181.329 95.0249C181.284 95.0399 181.228 95.0586 181.161 95.0811C181.095 95.0955 181.025 95.1152 180.95 95.1402C180.59 95.2601 180.335 95.4047 180.185 95.574C180.029 95.7378 179.968 95.9219 180.002 96.1264C180.045 96.3284 180.175 96.5492 180.395 96.7888L182.834 99.2273L181.428 99.6957Z" fill="white"/>
            <path d="M187.733 97.6949C187.373 97.8148 186.996 97.8773 186.601 97.8822C186.208 97.8791 185.805 97.816 185.393 97.6929C184.987 97.5673 184.586 97.3808 184.188 97.1334C183.785 96.8804 183.397 96.5667 183.022 96.1924C182.514 95.684 182.187 95.227 182.041 94.8213C181.897 94.4074 181.918 94.054 182.105 93.7609C182.299 93.4653 182.636 93.2375 183.115 93.0777C183.445 92.9677 183.777 92.9094 184.11 92.9027C184.445 92.8879 184.773 92.9163 185.094 92.9879C185.416 93.0595 185.718 93.1712 185.999 93.3231L186.078 93.2969L185.313 92.4569L186.662 92.0073L191.121 96.4653L189.715 96.9337L188.886 96.1041L188.807 96.1303C188.938 96.4515 188.915 96.7534 188.738 97.0359C188.555 97.3129 188.22 97.5325 187.733 97.6949ZM187.407 96.664C187.744 96.5516 187.963 96.4005 188.063 96.2108C188.17 96.0185 188.188 95.8114 188.116 95.5896C188.039 95.3622 187.896 95.1451 187.69 94.9384L187.229 94.4776C187.017 94.2653 186.762 94.0857 186.465 93.9388C186.163 93.7863 185.843 93.6917 185.507 93.6549C185.172 93.6101 184.836 93.6438 184.499 93.7563C184.199 93.8562 183.99 93.9967 183.871 94.1778C183.752 94.3589 183.738 94.5796 183.829 94.84C183.913 95.0947 184.121 95.3869 184.45 95.7165C184.769 96.0349 185.101 96.2818 185.446 96.4572C185.791 96.6326 186.129 96.7359 186.46 96.7671C186.791 96.7983 187.107 96.764 187.407 96.664Z" fill="white"/>
            <path d="M192.628 95.963L188.169 91.5049L189.53 91.0515L190.421 91.8829L190.489 91.8604C190.341 91.4926 190.364 91.1758 190.558 90.91C190.746 90.6387 191.046 90.4343 191.458 90.2969C191.893 90.152 192.361 90.1003 192.862 90.1418C193.364 90.1833 193.877 90.3622 194.403 90.6784L194.493 90.6484C194.31 90.2552 194.318 89.9136 194.518 89.6236C194.712 89.328 195.041 89.1027 195.506 88.9478C195.903 88.8154 196.317 88.7595 196.747 88.7799C197.185 88.7979 197.631 88.9138 198.084 89.1276C198.538 89.3414 198.991 89.6745 199.444 90.127L202.117 92.8001L200.712 93.2686L198.264 90.8217C197.985 90.5424 197.715 90.327 197.454 90.1758C197.187 90.0189 196.919 89.9257 196.649 89.8963C196.38 89.8669 196.107 89.8984 195.829 89.9908C195.53 90.0908 195.327 90.2328 195.221 90.417C195.123 90.5987 195.11 90.8004 195.182 91.0223C195.254 91.2441 195.402 91.4667 195.625 91.6902L198.081 94.1455L196.664 94.6176L194.217 92.1707C193.938 91.8914 193.667 91.6761 193.406 91.5248C193.139 91.368 192.871 91.2748 192.602 91.2454C192.34 91.2135 192.071 91.2437 191.793 91.3361C191.493 91.4361 191.291 91.5781 191.185 91.7623C191.087 91.944 191.07 92.147 191.134 92.3713C191.206 92.5932 191.354 92.8158 191.578 93.0393L194.033 95.4945L192.628 95.963Z" fill="white"/>
            <path d="M216.098 139.174L214.402 139.74L209.475 134.813L206.521 135.798L211.448 140.724L209.746 141.291L203.764 135.309L210.116 133.192L216.098 139.174Z" fill="white"/>
            <path d="M217.031 135.803C217.483 136.256 217.925 136.565 218.354 136.731C218.787 136.896 219.229 136.903 219.679 136.753C220.126 136.604 220.331 136.383 220.296 136.089C220.262 135.792 220.017 135.415 219.561 134.959C219.108 134.507 218.67 134.2 218.246 134.039C217.822 133.879 217.385 133.874 216.935 134.024C216.488 134.173 216.279 134.393 216.308 134.685C216.334 134.975 216.575 135.347 217.031 135.803ZM221.274 134.389C222.019 135.133 222.338 135.803 222.231 136.399C222.124 136.995 221.6 137.45 220.66 137.763C220.07 137.959 219.455 138.037 218.814 137.996C218.17 137.953 217.548 137.791 216.946 137.512C216.344 137.232 215.803 136.852 215.323 136.372C214.576 135.625 214.256 134.956 214.365 134.367C214.474 133.778 215.002 133.326 215.95 133.01C216.539 132.813 217.154 132.736 217.796 132.777C218.437 132.818 219.057 132.976 219.656 133.253C220.255 133.53 220.794 133.908 221.274 134.389Z" fill="white"/>
            <path d="M230.449 134.391L228.774 134.949L225.136 131.312L223.594 131.826C224.5 132.888 225.121 133.699 225.457 134.26C225.791 134.818 225.93 135.257 225.874 135.578C225.82 135.894 225.566 136.128 225.112 136.279C224.724 136.408 224.362 136.471 224.026 136.467L223.027 135.468C223.261 135.463 223.468 135.43 223.647 135.371C223.856 135.301 223.918 135.131 223.833 134.861C223.752 134.59 223.506 134.176 223.095 133.618C222.684 133.057 222.063 132.305 221.229 131.365L225.874 129.817L230.449 134.391Z" fill="white"/>
            <path d="M226.758 129.522L228.591 128.911L232.323 131.099C232.646 131.289 232.978 131.531 233.32 131.825L233.353 131.814C233.113 131.519 232.927 131.229 232.796 130.941L231.358 127.989L233.153 127.39L235.717 133.416C235.956 133.972 235.973 134.443 235.768 134.828C235.566 135.212 235.17 135.502 234.581 135.698C234.292 135.794 233.985 135.866 233.66 135.912L232.67 134.922C232.907 134.89 233.144 134.835 233.382 134.756C233.679 134.657 233.868 134.503 233.952 134.293C234.041 134.085 234.012 133.824 233.863 133.51L233.737 133.252L226.758 129.522Z" fill="white"/>
            <path d="M235.508 126.606L237.182 128.279C237.58 128.677 238.026 128.794 238.521 128.629C238.843 128.522 239.114 128.395 239.334 128.249C239.557 128.102 239.766 127.938 239.961 127.757L237.984 125.78L239.659 125.222L244.234 129.797L242.559 130.355L240.742 128.538C240.507 128.82 240.254 129.048 239.984 129.222C239.714 129.396 239.423 129.534 239.112 129.638C238.442 129.861 237.797 129.907 237.178 129.775C236.555 129.641 236.008 129.338 235.536 128.866L233.834 127.164L235.508 126.606Z" fill="white"/>
            <path d="M243.035 124.097L244.844 125.905C245.035 126.096 245.459 126.577 246.117 127.347L245.741 123.195L247.756 122.523L252.331 127.098L250.712 127.638L248.887 125.813C248.562 125.488 248.14 125.018 247.621 124.401L248 128.541L245.99 129.211L241.415 124.637L243.035 124.097Z" fill="white"/>
            <path d="M254.597 120.243L255.534 121.18L253.524 121.85L257.162 125.488L255.488 126.046L251.85 122.408L249.835 123.08L248.898 122.143L254.597 120.243Z" fill="white"/>
            <path d="M259.186 121.07L260.366 120.677C261.311 120.362 262.122 120.241 262.799 120.314C263.477 120.386 264.042 120.649 264.495 121.101C265.466 122.072 265.047 122.859 263.239 123.462L260.319 124.435L255.744 119.861L257.418 119.303L259.186 121.07ZM262.837 121.676C262.659 121.499 262.436 121.402 262.166 121.386C261.897 121.371 261.574 121.426 261.197 121.551L260.049 121.934L261.13 123.014L262.299 122.624C263.042 122.377 263.221 122.06 262.837 121.676Z" fill="white"/>
            <path d="M266.559 118.7C265.508 117.65 264.979 116.765 264.97 116.044C264.963 115.319 265.456 114.694 266.449 114.171C266.796 113.986 267.155 113.81 267.525 113.643C267.896 113.472 268.281 113.291 268.68 113.1L269.964 114.128C269.114 114.517 268.468 114.818 268.027 115.03C267.589 115.242 267.285 115.416 267.114 115.553C266.941 115.687 266.834 115.834 266.793 115.993C266.756 116.151 266.787 116.333 266.886 116.54C266.983 116.744 267.168 116.999 267.439 117.305L267.522 117.277C267.492 116.989 267.576 116.732 267.775 116.506C267.973 116.28 268.255 116.105 268.621 115.983C269.379 115.731 270.141 115.708 270.909 115.914C271.673 116.117 272.377 116.541 273.021 117.185C273.763 117.927 274.073 118.593 273.951 119.183C273.829 119.769 273.3 120.218 272.363 120.53C271.426 120.842 270.444 120.837 269.418 120.513C268.393 120.186 267.44 119.582 266.559 118.7ZM271.451 119.487C272.245 119.222 272.235 118.682 271.419 117.866C270.625 117.072 269.869 116.795 269.152 117.034C268.954 117.1 268.791 117.2 268.661 117.334C268.536 117.467 268.446 117.617 268.394 117.783C268.342 117.946 268.333 118.096 268.368 118.234C268.922 118.787 269.465 119.172 269.998 119.387C270.527 119.6 271.012 119.633 271.451 119.487Z" fill="white"/>
            <path d="M275.706 116.246C276.159 116.699 276.6 117.008 277.03 117.174C277.463 117.339 277.904 117.347 278.355 117.197C278.801 117.048 279.007 116.826 278.972 116.533C278.937 116.235 278.692 115.858 278.237 115.403C277.784 114.95 277.345 114.643 276.921 114.483C276.497 114.322 276.06 114.317 275.61 114.467C275.164 114.616 274.955 114.836 274.983 115.129C275.01 115.418 275.25 115.791 275.706 116.246ZM279.95 114.832C280.694 115.576 281.013 116.247 280.906 116.842C280.799 117.438 280.276 117.893 279.335 118.206C278.746 118.403 278.131 118.48 277.49 118.44C276.846 118.396 276.223 118.234 275.621 117.955C275.02 117.675 274.479 117.295 273.999 116.815C273.251 116.068 272.932 115.4 273.04 114.811C273.149 114.222 273.677 113.769 274.625 113.453C275.215 113.257 275.83 113.179 276.471 113.22C277.112 113.261 277.732 113.42 278.331 113.696C278.93 113.973 279.469 114.352 279.95 114.832Z" fill="white"/>
            <path d="M289.124 114.835L287.45 115.393L283.812 111.755L282.269 112.269C283.175 113.331 283.796 114.143 284.132 114.703C284.466 115.261 284.605 115.701 284.55 116.021C284.495 116.337 284.241 116.571 283.787 116.722C283.399 116.852 283.037 116.914 282.701 116.91L281.703 115.911C281.937 115.906 282.143 115.874 282.323 115.814C282.531 115.744 282.593 115.575 282.509 115.305C282.428 115.033 282.182 114.619 281.77 114.061C281.36 113.5 280.738 112.749 279.905 111.808L284.549 110.26L289.124 114.835Z" fill="white"/>
            <path d="M289.754 110.882L290.934 110.489C291.878 110.174 292.689 110.053 293.367 110.125C294.044 110.198 294.609 110.46 295.062 110.913C296.033 111.884 295.615 112.671 293.807 113.274L290.886 114.247L286.311 109.673L287.986 109.115L289.754 110.882ZM293.404 111.488C293.227 111.31 293.003 111.214 292.734 111.198C292.464 111.182 292.141 111.237 291.764 111.363L290.617 111.746L291.697 112.826L292.867 112.436C293.61 112.188 293.789 111.872 293.404 111.488Z" fill="white"/>
            <path d="M306.933 108.899L297.792 111.945L293.218 107.371L294.892 106.813L298.53 110.45L300.588 109.764L296.951 106.127L298.625 105.568L302.263 109.206L304.322 108.52L300.684 104.882L302.358 104.324L306.933 108.899Z" fill="white"/>
            <path d="M307.464 103.692C307.109 103.81 306.916 103.987 306.883 104.223C306.849 104.457 306.971 104.733 307.25 105.051L309.599 104.267C309.284 103.962 308.938 103.76 308.563 103.663C308.186 103.564 307.819 103.573 307.464 103.692ZM311.555 107.467C310.567 107.797 309.591 107.851 308.629 107.63C307.666 107.409 306.812 106.926 306.067 106.181C305.301 105.415 304.965 104.737 305.06 104.149C305.156 103.557 305.658 103.11 306.565 102.807C307.433 102.518 308.292 102.477 309.143 102.685C309.995 102.892 310.745 103.32 311.394 103.969L312 104.575L308.042 105.894C308.415 106.243 308.833 106.472 309.295 106.584C309.758 106.695 310.227 106.671 310.703 106.513C311.073 106.39 311.393 106.244 311.666 106.077C311.938 105.91 312.19 105.704 312.424 105.459L313.389 106.425C313.206 106.632 312.973 106.816 312.692 106.979C312.413 107.145 312.034 107.307 311.555 107.467Z" fill="white"/>
            <path d="M318.789 98.8476L323.364 103.422L321.684 103.982L318.046 100.345L315.823 101.086L319.461 104.723L317.786 105.281L313.212 100.707L318.789 98.8476Z" fill="white"/>
            <path d="M324.159 100.097C324.612 100.549 325.053 100.859 325.483 101.025C325.916 101.189 326.358 101.197 326.808 101.047C327.254 100.898 327.46 100.677 327.425 100.383C327.391 100.085 327.146 99.7085 326.69 99.253C326.237 98.8002 325.799 98.4935 325.375 98.333C324.951 98.1724 324.514 98.1672 324.063 98.3172C323.617 98.4661 323.408 98.6866 323.437 98.9789C323.463 99.2684 323.704 99.641 324.159 100.097ZM328.403 98.6821C329.148 99.4268 329.467 100.097 329.36 100.693C329.253 101.288 328.729 101.743 327.788 102.057C327.199 102.253 326.584 102.331 325.943 102.29C325.299 102.246 324.676 102.085 324.075 101.805C323.473 101.525 322.932 101.146 322.452 100.666C321.704 99.9182 321.385 99.2499 321.494 98.6609C321.603 98.0718 322.131 97.6193 323.079 97.3034C323.668 97.107 324.283 97.0292 324.924 97.0701C325.565 97.111 326.185 97.2699 326.784 97.5467C327.383 97.8235 327.923 98.202 328.403 98.6821Z" fill="white"/>
            <path d="M335.012 98.3231L332.287 95.5981L331.03 96.0171C331.446 96.5549 331.801 97.0785 332.096 97.5877C332.394 98.0957 332.601 98.5958 332.718 99.088L335.012 98.3231ZM340.141 100.018L338.636 100.52L336.995 98.8788L332.867 100.255L334.508 101.896L333.004 102.397L330.45 99.8437L330.966 99.6717C330.911 99.1481 330.693 98.5371 330.312 97.8386C329.93 97.1401 329.389 96.3767 328.687 95.5485L333.024 94.103L336.687 97.765L337.587 97.4649L340.141 100.018Z" fill="white"/>
            <path d="M340.551 91.5943L345.126 96.1688L343.446 96.7287L339.808 93.0913L337.585 93.8323L341.223 97.4698L339.548 98.0279L334.973 93.4534L340.551 91.5943Z" fill="white"/>
            <path d="M343.927 90.469L345.736 92.2775C345.927 92.4685 346.351 92.949 347.009 93.719L346.634 89.5669L348.649 88.8954L353.223 93.4699L351.604 94.0097L349.779 92.1848C349.454 91.8602 349.033 91.3897 348.514 90.7734L348.892 94.9136L346.883 95.5833L342.308 91.0088L343.927 90.469Z" fill="white"/>
            <path d="M357.56 92.1336C355.649 92.7704 353.913 92.3073 352.349 90.7443C351.572 89.9668 351.238 89.2869 351.349 88.7046C351.457 88.1194 351.996 87.6653 352.965 87.342C353.675 87.1053 354.416 86.9967 355.187 87.0162L355.659 88.1465C355.316 88.1552 355.007 88.1729 354.731 88.1994C354.452 88.2232 354.199 88.2729 353.972 88.3485C353.101 88.6389 353.127 89.245 354.049 90.167C354.943 91.0617 355.826 91.3639 356.697 91.0736C357.019 90.9662 357.286 90.8355 357.498 90.6812C357.707 90.5243 357.881 90.3319 358.019 90.104L359.087 91.1719C358.944 91.3904 358.758 91.5705 358.529 91.7123C358.304 91.8529 357.981 91.9934 357.56 92.1336Z" fill="white"/>
            <path d="M359.81 88.2139C360.263 88.6667 360.704 88.9761 361.134 89.1421C361.567 89.3068 362.009 89.3142 362.459 89.1642C362.905 89.0153 363.111 88.794 363.076 88.5003C363.042 88.2025 362.797 87.8259 362.341 87.3703C361.888 86.9175 361.45 86.6109 361.026 86.4503C360.602 86.2898 360.165 86.2845 359.714 86.4346C359.268 86.5834 359.059 86.804 359.088 87.0962C359.114 87.3858 359.355 87.7583 359.81 88.2139ZM364.054 86.7994C364.799 87.5441 365.118 88.2143 365.011 88.8101C364.904 89.4058 364.38 89.8604 363.439 90.1739C362.85 90.3703 362.235 90.4481 361.594 90.4072C360.95 90.3636 360.327 90.202 359.726 89.9224C359.124 89.6428 358.583 89.263 358.103 88.7829C357.356 88.0355 357.036 87.3673 357.145 86.7782C357.254 86.1892 357.782 85.7367 358.73 85.4207C359.319 85.2243 359.934 85.1466 360.575 85.1875C361.216 85.2284 361.836 85.3872 362.435 85.6641C363.034 85.9409 363.574 86.3194 364.054 86.7994Z" fill="white"/>
            <path d="M367.182 82.718L369.027 82.1032L368.788 85.107L373.816 86.6064L371.916 87.2395L367.087 85.7557L369.407 88.0757L367.733 88.6338L363.158 84.0593L364.833 83.5012L367.055 85.723L367.182 82.718Z" fill="white"/>
        </g>
    </g>
    <g filter="url(#filter17_d_676_8372)">
        <rect width="69.4539" height="53.7969" rx="11" transform="matrix(0.948692 -0.316203 0.707138 0.707076 542 86.9615)" fill="#2D2846"/>
        <g clip-path="url(#clip10_676_8372)">
            <path d="M598.774 105.281L585.41 102.126C581.361 101.17 578.594 98.4035 579.184 95.901L581.134 87.6426C581.725 85.14 585.437 83.9027 589.486 84.8586L602.85 88.0132C606.899 88.9691 609.666 91.7359 609.076 94.2384L607.126 102.497C606.478 104.942 602.765 106.179 598.774 105.281Z" fill="url(#paint4_linear_676_8372)"/>
            <path d="M598.952 91.8487C597.856 90.7535 595.697 90.2437 594.227 90.7334L587.267 93.0534C585.797 93.5431 585.482 94.8778 586.578 95.973L588.999 98.3939C590.094 99.4891 592.254 99.9989 593.723 99.5092L600.684 97.1893C602.153 96.6995 602.468 95.3648 601.373 94.2696L598.952 91.8487ZM596.236 94.5983L594.296 96.7822C594.199 96.8914 593.754 96.9626 593.639 96.8473L591.276 94.484C591.16 94.3687 591.489 94.1822 591.702 94.1883L595.928 94.3935C596.063 94.4253 596.333 94.4891 596.236 94.5983Z" fill="white"/>
        </g>
    </g>
    <g filter="url(#filter18_d_676_8372)">
        <rect width="81.0295" height="62.763" rx="11" transform="matrix(0.948692 -0.316203 0.707138 0.707076 13 184.622)" fill="#2D2846"/>
        <g clip-path="url(#clip11_676_8372)">
            <path d="M79.234 205.994L63.6438 202.313C58.9195 201.198 55.6914 197.97 56.3806 195.051L58.6549 185.416C59.3441 182.497 63.6748 181.053 68.3991 182.168L83.9893 185.849C88.7136 186.964 91.9417 190.192 91.2526 193.111L88.9782 202.746C88.2218 205.598 83.891 207.042 79.234 205.994Z" fill="url(#paint5_linear_676_8372)"/>
            <path d="M77.7622 188.283C77.4455 188.568 77.0387 188.883 76.6548 189.1C76.9255 189.01 76.8599 188.584 76.9059 188.389C76.8845 188.127 76.8632 187.865 76.6845 187.566L76.6172 187.499L76.527 187.529C76.1874 187.911 75.8478 188.293 75.2835 188.571C75.1932 188.601 75.1932 188.601 75.1932 188.601C75.0358 188.564 75.0358 188.564 74.8783 188.527C74.4731 188.482 74.0679 188.438 73.6628 188.394C73.1674 188.38 72.649 188.463 72.2651 188.68C71.814 188.831 71.5876 189.086 71.3612 189.34C71.1348 189.595 70.9757 189.917 70.974 190.276C70.9723 190.636 71.0609 190.965 71.3069 191.331C71.553 191.697 71.822 191.966 72.2484 192.272C72.3157 192.34 72.3157 192.34 72.2255 192.37C69.6106 192.883 67.0204 192.939 64.0513 192.135C63.8938 192.098 63.8938 192.098 63.8709 192.196C63.9561 193.243 65.5275 194.333 67.035 194.638C67.1925 194.675 67.4402 194.682 67.6649 194.786C67.5747 194.816 66.9661 194.93 66.223 194.908C66.1328 194.938 66.1328 194.938 66.2 195.006C66.2673 195.073 66.3346 195.14 66.4691 195.275C67.3663 196.052 68.9181 196.521 70.1796 196.459C70.3371 196.496 70.5175 196.436 70.6077 196.406C70.4043 196.563 70.2239 196.623 69.525 196.767C69.4348 196.797 69.4348 196.797 69.5021 196.864C70.962 197.722 72.3137 197.63 73.3274 197.561C73.4177 197.531 73.5079 197.501 73.6883 197.441C73.6867 197.8 73.0534 198.37 72.6696 198.588C72.0593 199.06 71.3145 199.398 70.4353 199.601C70.345 199.631 70.2548 199.662 70.2548 199.662L70.3221 199.729C70.5698 199.736 70.8175 199.743 71.0652 199.75C71.8083 199.771 72.5514 199.793 73.16 199.68C76.7427 199.292 79.52 197.739 80.1616 195.373C80.598 193.524 79.4811 191.565 77.6653 189.75C77.598 189.682 77.621 189.585 77.7112 189.555C77.8933 189.136 77.9852 188.746 78.0099 188.29C77.8294 188.35 77.7622 188.283 77.7622 188.283Z" fill="white"/>
        </g>
    </g>
    <g filter="url(#filter19_d_676_8372)">
        <rect width="104.181" height="80.6953" rx="11" transform="matrix(0.948692 -0.316203 0.707138 0.707076 464 204.942)" fill="#2D2846"/>
        <g clip-path="url(#clip12_676_8372)">
            <path d="M549.158 232.42L529.113 227.689C523.039 226.255 518.889 222.105 519.775 218.351L522.699 205.964C523.585 202.21 529.153 200.354 535.227 201.788L555.272 206.52C561.346 207.954 565.496 212.104 564.61 215.857L561.686 228.245C560.714 231.912 555.146 233.768 549.158 232.42Z" fill="url(#paint6_linear_676_8372)"/>
            <path d="M535.932 224.609C535.846 224.523 535.759 224.436 535.673 224.35C535.702 224.225 535.732 224.099 535.878 223.936C537.358 223.096 537.74 221.932 537.428 220.537C537.259 219.44 536.884 219.22 535.262 219.299C535.146 219.338 535.146 219.338 534.944 219.29C534.625 219.281 534.191 219.31 533.786 219.215C532.86 219.062 532.603 218.341 533.212 218.023C533.59 217.781 534.313 217.886 534.893 217.693C535.241 217.577 535.271 217.452 535.011 217.192C534.203 216.539 533.512 215.848 532.82 215.156C531.639 213.82 531.413 212.512 532.316 211.404C533.453 209.757 535.773 208.984 538.812 209.239C540.81 209.381 542.486 209.974 543.929 211.108C544.823 211.847 545.601 212.625 546.264 213.442C546.609 213.788 546.696 213.874 547.073 213.633C547.567 213.353 547.772 212.939 548.611 213.005C549.045 212.976 549.537 213.158 549.796 213.417C549.969 213.59 550.026 213.802 549.881 213.966C549.822 214.216 549.56 214.418 549.298 214.621C549.153 214.784 549.007 214.948 548.746 215.151C548.455 215.478 548.482 215.815 549.06 216.084C551.169 217.11 553.28 217.674 555.598 217.363C555.83 217.285 556.149 217.295 556.438 217.429C556.524 217.515 556.61 217.602 556.697 217.688C556.724 218.025 556.665 218.275 556.288 218.516C556.026 218.719 555.735 219.046 555.387 219.162C554.807 219.356 554.748 219.606 555.064 220.077C555.381 220.548 555.265 220.586 554.685 220.78C554.569 220.818 554.453 220.857 554.25 220.809C552.917 221.023 551.96 221.457 551.753 222.333C551.607 222.497 551.578 222.622 551.432 222.786C550.702 224.067 549.165 224.695 546.849 224.544C546.212 224.526 545.605 224.382 544.968 224.364C544.447 224.307 544.012 224.337 543.462 224.405C542.679 224.551 542.186 224.83 541.576 225.149C541.228 225.265 540.794 225.294 540.534 225.035C539.929 224.43 539.176 224.45 538.394 224.596C538.046 224.712 537.611 224.741 537.206 224.646C536.829 224.887 536.308 224.83 535.932 224.609Z" fill="white"/>
        </g>
    </g>
    <defs>
        <filter id="filter0_d_676_8372" x="18.0646" y="236.227" width="403.079" height="269.559" filterUnits="userSpaceOnUse" color-interpolation-filters="sRGB">
            <feFlood flood-opacity="0" result="BackgroundImageFix"/>
            <feColorMatrix in="SourceAlpha" type="matrix" values="0 0 0 0 0 0 0 0 0 0 0 0 0 0 0 0 0 0 127 0" result="hardAlpha"/>
            <feOffset dx="-10" dy="12"/>
            <feGaussianBlur stdDeviation="6.5"/>
            <feComposite in2="hardAlpha" operator="out"/>
            <feColorMatrix type="matrix" values="0 0 0 0 0 0 0 0 0 0 0 0 0 0 0 0 0 0 0.12 0"/>
            <feBlend mode="normal" in2="BackgroundImageFix" result="effect1_dropShadow_676_8372"/>
            <feBlend mode="normal" in="SourceGraphic" in2="effect1_dropShadow_676_8372" result="shape"/>
        </filter>
        <filter id="filter1_d_676_8372" x="92.9166" y="237.227" width="109.495" height="77.7228" filterUnits="userSpaceOnUse" color-interpolation-filters="sRGB">
            <feFlood flood-opacity="0" result="BackgroundImageFix"/>
            <feColorMatrix in="SourceAlpha" type="matrix" values="0 0 0 0 0 0 0 0 0 0 0 0 0 0 0 0 0 0 127 0" result="hardAlpha"/>
            <feOffset dy="11"/>
            <feGaussianBlur stdDeviation="2"/>
            <feComposite in2="hardAlpha" operator="out"/>
            <feColorMatrix type="matrix" values="0 0 0 0 0 0 0 0 0 0 0 0 0 0 0 0 0 0 0.09 0"/>
            <feBlend mode="normal" in2="BackgroundImageFix" result="effect1_dropShadow_676_8372"/>
            <feBlend mode="normal" in="SourceGraphic" in2="effect1_dropShadow_676_8372" result="shape"/>
        </filter>
        <filter id="filter2_ii_676_8372" x="129.796" y="256.941" width="25.51" height="23.7379" filterUnits="userSpaceOnUse" color-interpolation-filters="sRGB">
            <feFlood flood-opacity="0" result="BackgroundImageFix"/>
            <feBlend mode="normal" in="SourceGraphic" in2="BackgroundImageFix" result="shape"/>
            <feColorMatrix in="SourceAlpha" type="matrix" values="0 0 0 0 0 0 0 0 0 0 0 0 0 0 0 0 0 0 127 0" result="hardAlpha"/>
            <feOffset dy="-1"/>
            <feGaussianBlur stdDeviation="7"/>
            <feComposite in2="hardAlpha" operator="arithmetic" k2="-1" k3="1"/>
            <feColorMatrix type="matrix" values="0 0 0 0 0 0 0 0 0 0 0 0 0 0 0 0 0 0 0.25 0"/>
            <feBlend mode="normal" in2="shape" result="effect1_innerShadow_676_8372"/>
            <feColorMatrix in="SourceAlpha" type="matrix" values="0 0 0 0 0 0 0 0 0 0 0 0 0 0 0 0 0 0 127 0" result="hardAlpha"/>
            <feOffset dx="-3" dy="8"/>
            <feGaussianBlur stdDeviation="7"/>
            <feComposite in2="hardAlpha" operator="arithmetic" k2="-1" k3="1"/>
            <feColorMatrix type="matrix" values="0 0 0 0 1 0 0 0 0 1 0 0 0 0 1 0 0 0 0.55 0"/>
            <feBlend mode="normal" in2="effect1_innerShadow_676_8372" result="effect2_innerShadow_676_8372"/>
        </filter>
        <filter id="filter3_ii_676_8372" x="132.706" y="271.49" width="59.3969" height="37.3417" filterUnits="userSpaceOnUse" color-interpolation-filters="sRGB">
            <feFlood flood-opacity="0" result="BackgroundImageFix"/>
            <feBlend mode="normal" in="SourceGraphic" in2="BackgroundImageFix" result="shape"/>
            <feColorMatrix in="SourceAlpha" type="matrix" values="0 0 0 0 0 0 0 0 0 0 0 0 0 0 0 0 0 0 127 0" result="hardAlpha"/>
            <feOffset dy="-1"/>
            <feGaussianBlur stdDeviation="7"/>
            <feComposite in2="hardAlpha" operator="arithmetic" k2="-1" k3="1"/>
            <feColorMatrix type="matrix" values="0 0 0 0 0 0 0 0 0 0 0 0 0 0 0 0 0 0 0.25 0"/>
            <feBlend mode="normal" in2="shape" result="effect1_innerShadow_676_8372"/>
            <feColorMatrix in="SourceAlpha" type="matrix" values="0 0 0 0 0 0 0 0 0 0 0 0 0 0 0 0 0 0 127 0" result="hardAlpha"/>
            <feOffset dx="-10" dy="4"/>
            <feGaussianBlur stdDeviation="7"/>
            <feComposite in2="hardAlpha" operator="arithmetic" k2="-1" k3="1"/>
            <feColorMatrix type="matrix" values="0 0 0 0 1 0 0 0 0 1 0 0 0 0 1 0 0 0 0.55 0"/>
            <feBlend mode="normal" in2="effect1_innerShadow_676_8372" result="effect2_innerShadow_676_8372"/>
        </filter>
        <filter id="filter4_d_676_8372" x="199.182" y="300.163" width="143.441" height="87.9191" filterUnits="userSpaceOnUse" color-interpolation-filters="sRGB">
            <feFlood flood-opacity="0" result="BackgroundImageFix"/>
            <feColorMatrix in="SourceAlpha" type="matrix" values="0 0 0 0 0 0 0 0 0 0 0 0 0 0 0 0 0 0 127 0" result="hardAlpha"/>
            <feOffset dx="-3" dy="14"/>
            <feGaussianBlur stdDeviation="8.5"/>
            <feComposite in2="hardAlpha" operator="out"/>
            <feColorMatrix type="matrix" values="0 0 0 0 0.0152451 0 0 0 0 0.0119097 0 0 0 0 0.0291667 0 0 0 0.11 0"/>
            <feBlend mode="normal" in2="BackgroundImageFix" result="effect1_dropShadow_676_8372"/>
            <feBlend mode="normal" in="SourceGraphic" in2="effect1_dropShadow_676_8372" result="shape"/>
        </filter>
        <filter id="filter5_d_676_8372" x="44.7031" y="368.546" width="46.9283" height="37.6516" filterUnits="userSpaceOnUse" color-interpolation-filters="sRGB">
            <feFlood flood-opacity="0" result="BackgroundImageFix"/>
            <feColorMatrix in="SourceAlpha" type="matrix" values="0 0 0 0 0 0 0 0 0 0 0 0 0 0 0 0 0 0 127 0" result="hardAlpha"/>
            <feOffset dy="10"/>
            <feGaussianBlur stdDeviation="2"/>
            <feComposite in2="hardAlpha" operator="out"/>
            <feColorMatrix type="matrix" values="0 0 0 0 0.976471 0 0 0 0 0.247059 0 0 0 0 0.729412 0 0 0 0.16 0"/>
            <feBlend mode="normal" in2="BackgroundImageFix" result="effect1_dropShadow_676_8372"/>
            <feBlend mode="normal" in="SourceGraphic" in2="effect1_dropShadow_676_8372" result="shape"/>
        </filter>
        <filter id="filter6_ii_676_8372" x="54.4125" y="373.439" width="26.5374" height="19.275" filterUnits="userSpaceOnUse" color-interpolation-filters="sRGB">
            <feFlood flood-opacity="0" result="BackgroundImageFix"/>
            <feBlend mode="normal" in="SourceGraphic" in2="BackgroundImageFix" result="shape"/>
            <feColorMatrix in="SourceAlpha" type="matrix" values="0 0 0 0 0 0 0 0 0 0 0 0 0 0 0 0 0 0 127 0" result="hardAlpha"/>
            <feOffset dx="2" dy="-1"/>
            <feGaussianBlur stdDeviation="3.5"/>
            <feComposite in2="hardAlpha" operator="arithmetic" k2="-1" k3="1"/>
            <feColorMatrix type="matrix" values="0 0 0 0 0 0 0 0 0 0 0 0 0 0 0 0 0 0 0.25 0"/>
            <feBlend mode="normal" in2="shape" result="effect1_innerShadow_676_8372"/>
            <feColorMatrix in="SourceAlpha" type="matrix" values="0 0 0 0 0 0 0 0 0 0 0 0 0 0 0 0 0 0 127 0" result="hardAlpha"/>
            <feOffset dx="-5" dy="5"/>
            <feGaussianBlur stdDeviation="9.5"/>
            <feComposite in2="hardAlpha" operator="arithmetic" k2="-1" k3="1"/>
            <feColorMatrix type="matrix" values="0 0 0 0 1 0 0 0 0 1 0 0 0 0 1 0 0 0 0.55 0"/>
            <feBlend mode="normal" in2="effect1_innerShadow_676_8372" result="effect2_innerShadow_676_8372"/>
        </filter>
        <filter id="filter7_d_676_8372" x="60.4723" y="305.779" width="79.0386" height="61.9996" filterUnits="userSpaceOnUse" color-interpolation-filters="sRGB">
            <feFlood flood-opacity="0" result="BackgroundImageFix"/>
            <feColorMatrix in="SourceAlpha" type="matrix" values="0 0 0 0 0 0 0 0 0 0 0 0 0 0 0 0 0 0 127 0" result="hardAlpha"/>
            <feOffset dx="-4" dy="14"/>
            <feGaussianBlur stdDeviation="7"/>
            <feComposite in2="hardAlpha" operator="out"/>
            <feColorMatrix type="matrix" values="0 0 0 0 0.976471 0 0 0 0 0.247059 0 0 0 0 0.729412 0 0 0 0.2 0"/>
            <feBlend mode="normal" in2="BackgroundImageFix" result="effect1_dropShadow_676_8372"/>
            <feBlend mode="normal" in="SourceGraphic" in2="effect1_dropShadow_676_8372" result="shape"/>
        </filter>
        <filter id="filter8_ii_676_8372" x="89.8046" y="314.873" width="30.6814" height="23.355" filterUnits="userSpaceOnUse" color-interpolation-filters="sRGB">
            <feFlood flood-opacity="0" result="BackgroundImageFix"/>
            <feBlend mode="normal" in="SourceGraphic" in2="BackgroundImageFix" result="shape"/>
            <feColorMatrix in="SourceAlpha" type="matrix" values="0 0 0 0 0 0 0 0 0 0 0 0 0 0 0 0 0 0 127 0" result="hardAlpha"/>
            <feOffset dx="2" dy="-1"/>
            <feGaussianBlur stdDeviation="3.5"/>
            <feComposite in2="hardAlpha" operator="arithmetic" k2="-1" k3="1"/>
            <feColorMatrix type="matrix" values="0 0 0 0 0 0 0 0 0 0 0 0 0 0 0 0 0 0 0.25 0"/>
            <feBlend mode="normal" in2="shape" result="effect1_innerShadow_676_8372"/>
            <feColorMatrix in="SourceAlpha" type="matrix" values="0 0 0 0 0 0 0 0 0 0 0 0 0 0 0 0 0 0 127 0" result="hardAlpha"/>
            <feOffset dx="-5" dy="5"/>
            <feGaussianBlur stdDeviation="9.5"/>
            <feComposite in2="hardAlpha" operator="arithmetic" k2="-1" k3="1"/>
            <feColorMatrix type="matrix" values="0 0 0 0 1 0 0 0 0 1 0 0 0 0 1 0 0 0 0.55 0"/>
            <feBlend mode="normal" in2="effect1_innerShadow_676_8372" result="effect2_innerShadow_676_8372"/>
        </filter>
        <filter id="filter9_d_676_8372" x="44.8296" y="326.522" width="109.452" height="89.0969" filterUnits="userSpaceOnUse" color-interpolation-filters="sRGB">
            <feFlood flood-opacity="0" result="BackgroundImageFix"/>
            <feColorMatrix in="SourceAlpha" type="matrix" values="0 0 0 0 0 0 0 0 0 0 0 0 0 0 0 0 0 0 127 0" result="hardAlpha"/>
            <feOffset dx="-4" dy="11"/>
            <feGaussianBlur stdDeviation="11.5"/>
            <feComposite in2="hardAlpha" operator="out"/>
            <feColorMatrix type="matrix" values="0 0 0 0 0.976471 0 0 0 0 0.247059 0 0 0 0 0.729412 0 0 0 0.3 0"/>
            <feBlend mode="normal" in2="BackgroundImageFix" result="effect1_dropShadow_676_8372"/>
            <feBlend mode="normal" in="SourceGraphic" in2="effect1_dropShadow_676_8372" result="shape"/>
        </filter>
        <filter id="filter10_ii_676_8372" x="86.1593" y="350.448" width="37.6045" height="27.8881" filterUnits="userSpaceOnUse" color-interpolation-filters="sRGB">
            <feFlood flood-opacity="0" result="BackgroundImageFix"/>
            <feBlend mode="normal" in="SourceGraphic" in2="BackgroundImageFix" result="shape"/>
            <feColorMatrix in="SourceAlpha" type="matrix" values="0 0 0 0 0 0 0 0 0 0 0 0 0 0 0 0 0 0 127 0" result="hardAlpha"/>
            <feOffset dx="2" dy="-1"/>
            <feGaussianBlur stdDeviation="3.5"/>
            <feComposite in2="hardAlpha" operator="arithmetic" k2="-1" k3="1"/>
            <feColorMatrix type="matrix" values="0 0 0 0 0 0 0 0 0 0 0 0 0 0 0 0 0 0 0.25 0"/>
            <feBlend mode="normal" in2="shape" result="effect1_innerShadow_676_8372"/>
            <feColorMatrix in="SourceAlpha" type="matrix" values="0 0 0 0 0 0 0 0 0 0 0 0 0 0 0 0 0 0 127 0" result="hardAlpha"/>
            <feOffset dx="-5" dy="5"/>
            <feGaussianBlur stdDeviation="9.5"/>
            <feComposite in2="hardAlpha" operator="arithmetic" k2="-1" k3="1"/>
            <feColorMatrix type="matrix" values="0 0 0 0 1 0 0 0 0 1 0 0 0 0 1 0 0 0 0.55 0"/>
            <feBlend mode="normal" in2="effect1_innerShadow_676_8372" result="effect2_innerShadow_676_8372"/>
        </filter>
        <filter id="filter11_d_676_8372" x="455" y="296" width="131.932" height="106" filterUnits="userSpaceOnUse" color-interpolation-filters="sRGB">
            <feFlood flood-opacity="0" result="BackgroundImageFix"/>
            <feColorMatrix in="SourceAlpha" type="matrix" values="0 0 0 0 0 0 0 0 0 0 0 0 0 0 0 0 0 0 127 0" result="hardAlpha"/>
            <feOffset dx="-5" dy="32"/>
            <feGaussianBlur stdDeviation="7"/>
            <feComposite in2="hardAlpha" operator="out"/>
            <feColorMatrix type="matrix" values="0 0 0 0 0 0 0 0 0 0 0 0 0 0 0 0 0 0 0.13 0"/>
            <feBlend mode="normal" in2="BackgroundImageFix" result="effect1_dropShadow_676_8372"/>
            <feBlend mode="normal" in="SourceGraphic" in2="effect1_dropShadow_676_8372" result="shape"/>
        </filter>
        <filter id="filter12_d_676_8372" x="341" y="240" width="164.576" height="106" filterUnits="userSpaceOnUse" color-interpolation-filters="sRGB">
            <feFlood flood-opacity="0" result="BackgroundImageFix"/>
            <feColorMatrix in="SourceAlpha" type="matrix" values="0 0 0 0 0 0 0 0 0 0 0 0 0 0 0 0 0 0 127 0" result="hardAlpha"/>
            <feOffset dy="10"/>
            <feGaussianBlur stdDeviation="6.5"/>
            <feComposite in2="hardAlpha" operator="out"/>
            <feColorMatrix type="matrix" values="0 0 0 0 0 0 0 0 0 0 0 0 0 0 0 0 0 0 0.18 0"/>
            <feBlend mode="normal" in2="BackgroundImageFix" result="effect1_dropShadow_676_8372"/>
            <feBlend mode="normal" in="SourceGraphic" in2="effect1_dropShadow_676_8372" result="shape"/>
        </filter>
        <filter id="filter13_d_676_8372" x="64" y="0.740601" width="502.816" height="294.259" filterUnits="userSpaceOnUse" color-interpolation-filters="sRGB">
            <feFlood flood-opacity="0" result="BackgroundImageFix"/>
            <feColorMatrix in="SourceAlpha" type="matrix" values="0 0 0 0 0 0 0 0 0 0 0 0 0 0 0 0 0 0 127 0" result="hardAlpha"/>
            <feOffset dx="-5" dy="17"/>
            <feGaussianBlur stdDeviation="6.5"/>
            <feComposite in2="hardAlpha" operator="out"/>
            <feColorMatrix type="matrix" values="0 0 0 0 0 0 0 0 0 0 0 0 0 0 0 0 0 0 0.1 0"/>
            <feBlend mode="normal" in2="BackgroundImageFix" result="effect1_dropShadow_676_8372"/>
            <feBlend mode="normal" in="SourceGraphic" in2="effect1_dropShadow_676_8372" result="shape"/>
        </filter>
        <filter id="filter14_d_676_8372" x="355.754" y="107.682" width="58.7099" height="43.2729" filterUnits="userSpaceOnUse" color-interpolation-filters="sRGB">
            <feFlood flood-opacity="0" result="BackgroundImageFix"/>
            <feColorMatrix in="SourceAlpha" type="matrix" values="0 0 0 0 0 0 0 0 0 0 0 0 0 0 0 0 0 0 127 0" result="hardAlpha"/>
            <feOffset dy="4"/>
            <feGaussianBlur stdDeviation="3.5"/>
            <feComposite in2="hardAlpha" operator="out"/>
            <feColorMatrix type="matrix" values="0 0 0 0 0.968627 0 0 0 0 0.321569 0 0 0 0 0.458824 0 0 0 0.17 0"/>
            <feBlend mode="normal" in2="BackgroundImageFix" result="effect1_dropShadow_676_8372"/>
            <feBlend mode="normal" in="SourceGraphic" in2="effect1_dropShadow_676_8372" result="shape"/>
        </filter>
        <filter id="filter15_b_676_8372" x="358.754" y="106.682" width="52.7099" height="37.2729" filterUnits="userSpaceOnUse" color-interpolation-filters="sRGB">
            <feFlood flood-opacity="0" result="BackgroundImageFix"/>
            <feGaussianBlur in="BackgroundImageFix" stdDeviation="2"/>
            <feComposite in2="SourceAlpha" operator="in" result="effect1_backgroundBlur_676_8372"/>
            <feBlend mode="normal" in="SourceGraphic" in2="effect1_backgroundBlur_676_8372" result="shape"/>
        </filter>
        <filter id="filter16_d_676_8372" x="228.383" y="131.758" width="278.35" height="128.901" filterUnits="userSpaceOnUse" color-interpolation-filters="sRGB">
            <feFlood flood-opacity="0" result="BackgroundImageFix"/>
            <feColorMatrix in="SourceAlpha" type="matrix" values="0 0 0 0 0 0 0 0 0 0 0 0 0 0 0 0 0 0 127 0" result="hardAlpha"/>
            <feOffset dy="14"/>
            <feGaussianBlur stdDeviation="7"/>
            <feComposite in2="hardAlpha" operator="out"/>
            <feColorMatrix type="matrix" values="0 0 0 0 0.968627 0 0 0 0 0.321569 0 0 0 0 0.458824 0 0 0 0.12 0"/>
            <feBlend mode="normal" in2="BackgroundImageFix" result="effect1_dropShadow_676_8372"/>
            <feBlend mode="normal" in="SourceGraphic" in2="effect1_dropShadow_676_8372" result="shape"/>
        </filter>
        <filter id="filter17_d_676_8372" x="521" y="64" width="125.932" height="82" filterUnits="userSpaceOnUse" color-interpolation-filters="sRGB">
            <feFlood flood-opacity="0" result="BackgroundImageFix"/>
            <feColorMatrix in="SourceAlpha" type="matrix" values="0 0 0 0 0 0 0 0 0 0 0 0 0 0 0 0 0 0 127 0" result="hardAlpha"/>
            <feOffset dx="-10" dy="10"/>
            <feGaussianBlur stdDeviation="5.5"/>
            <feComposite in2="hardAlpha" operator="out"/>
            <feColorMatrix type="matrix" values="0 0 0 0 0 0 0 0 0 0 0 0 0 0 0 0 0 0 0.15 0"/>
            <feBlend mode="normal" in2="BackgroundImageFix" result="effect1_dropShadow_676_8372"/>
            <feBlend mode="normal" in="SourceGraphic" in2="effect1_dropShadow_676_8372" result="shape"/>
        </filter>
        <filter id="filter18_d_676_8372" x="0" y="158" width="147.254" height="96" filterUnits="userSpaceOnUse" color-interpolation-filters="sRGB">
            <feFlood flood-opacity="0" result="BackgroundImageFix"/>
            <feColorMatrix in="SourceAlpha" type="matrix" values="0 0 0 0 0 0 0 0 0 0 0 0 0 0 0 0 0 0 127 0" result="hardAlpha"/>
            <feOffset dy="12"/>
            <feGaussianBlur stdDeviation="6.5"/>
            <feComposite in2="hardAlpha" operator="out"/>
            <feColorMatrix type="matrix" values="0 0 0 0 0 0 0 0 0 0 0 0 0 0 0 0 0 0 0.16 0"/>
            <feBlend mode="normal" in2="BackgroundImageFix" result="effect1_dropShadow_676_8372"/>
            <feBlend mode="normal" in="SourceGraphic" in2="effect1_dropShadow_676_8372" result="shape"/>
        </filter>
        <filter id="filter19_d_676_8372" x="445" y="172" width="183.898" height="131" filterUnits="userSpaceOnUse" color-interpolation-filters="sRGB">
            <feFlood flood-opacity="0" result="BackgroundImageFix"/>
            <feColorMatrix in="SourceAlpha" type="matrix" values="0 0 0 0 0 0 0 0 0 0 0 0 0 0 0 0 0 0 127 0" result="hardAlpha"/>
            <feOffset dx="-5" dy="27"/>
            <feGaussianBlur stdDeviation="7"/>
            <feComposite in2="hardAlpha" operator="out"/>
            <feColorMatrix type="matrix" values="0 0 0 0 0 0 0 0 0 0 0 0 0 0 0 0 0 0 0.1 0"/>
            <feBlend mode="normal" in2="BackgroundImageFix" result="effect1_dropShadow_676_8372"/>
            <feBlend mode="normal" in="SourceGraphic" in2="effect1_dropShadow_676_8372" result="shape"/>
        </filter>
        <linearGradient id="paint0_linear_676_8372" x1="516.041" y1="315.982" x2="524.11" y2="340.191" gradientUnits="userSpaceOnUse">
            <stop stop-color="#3C5A99"/>
            <stop offset="1" stop-color="#2B1E99"/>
        </linearGradient>
        <linearGradient id="paint1_linear_676_8372" x1="407.284" y1="266.874" x2="423.725" y2="316.2" gradientUnits="userSpaceOnUse">
            <stop offset="0.0011048" stop-color="#FBE18A"/>
            <stop offset="0.2094" stop-color="#FCBB45"/>
            <stop offset="0.3765" stop-color="#F75274"/>
            <stop offset="0.5238" stop-color="#D53692"/>
            <stop offset="0.7394" stop-color="#8F39CE"/>
            <stop offset="1" stop-color="#5B4FE9"/>
        </linearGradient>
        <linearGradient id="paint2_linear_676_8372" x1="0" y1="6.6664" x2="333.298" y2="6.66634" gradientUnits="userSpaceOnUse">
            <stop stop-color="#FCD370"/>
            <stop offset="0.25" stop-color="#FB9755"/>
            <stop offset="0.5" stop-color="#F45077"/>
            <stop offset="0.75" stop-color="#D13796"/>
            <stop offset="1" stop-color="#A039C0"/>
        </linearGradient>
        <linearGradient id="paint3_linear_676_8372" x1="409.686" y1="206.864" x2="331.539" y2="285.018" gradientUnits="userSpaceOnUse">
            <stop stop-color="#F75275"/>
            <stop offset="1" stop-color="#5740B7"/>
        </linearGradient>
        <linearGradient id="paint4_linear_676_8372" x1="584.042" y1="84.9825" x2="592.111" y2="109.192" gradientUnits="userSpaceOnUse">
            <stop stop-color="#FF5656"/>
            <stop offset="1" stop-color="#B60202"/>
        </linearGradient>
        <linearGradient id="paint5_linear_676_8372" x1="62.0474" y1="182.313" x2="71.4612" y2="210.557" gradientUnits="userSpaceOnUse">
            <stop stop-color="#33CCFF"/>
            <stop offset="1" stop-color="#337FFF"/>
        </linearGradient>
        <linearGradient id="paint6_linear_676_8372" x1="527.061" y1="201.974" x2="539.164" y2="238.287" gradientUnits="userSpaceOnUse">
            <stop stop-color="#FEFB01"/>
            <stop offset="1" stop-color="#FCBB45"/>
        </linearGradient>
        <clipPath id="clip0_676_8372">
            <rect width="61.2958" height="61.2958" rx="30.6479" transform="matrix(0.948692 -0.316203 0.707138 0.707076 96.9166 256.609)" fill="white"/>
        </clipPath>
        <clipPath id="clip1_676_8372">
            <rect width="23.8139" height="23.8139" rx="11.907" transform="matrix(0.996176 -0.265577 0.638508 0.727606 48.7031 374.871)" fill="white"/>
        </clipPath>
        <clipPath id="clip2_676_8372">
            <rect width="31.0535" height="31.0535" rx="15.5267" transform="matrix(0.664652 -0.530394 0.978918 0.564481 78.4723 322.25)" fill="white"/>
        </clipPath>
        <clipPath id="clip3_676_8372">
            <rect width="39.4044" height="39.4044" rx="19.7022" transform="matrix(0.577557 -0.577209 1.03271 0.516498 71.8296 361.267)" fill="white"/>
        </clipPath>
        <clipPath id="clip4_676_8372">
            <rect width="28.5313" height="28.5313" fill="white" transform="matrix(0.948692 -0.316203 0.707138 0.707076 502.507 320.493)"/>
        </clipPath>
        <clipPath id="clip5_676_8372">
            <rect width="38.0418" height="38.0418" fill="white" transform="matrix(0.948692 -0.316203 0.707138 0.707076 392.009 275.658)"/>
        </clipPath>
        <clipPath id="clip6_676_8372">
            <rect width="336.042" height="223.458" rx="21" transform="matrix(0.948692 -0.316203 0.707138 0.707076 82 106.998)" fill="white"/>
        </clipPath>
        <clipPath id="clip7_676_8372">
            <rect width="13.3327" height="13.3327" fill="white" transform="matrix(0.948692 -0.316203 0.707138 0.707076 267.629 209.231)"/>
        </clipPath>
        <clipPath id="clip8_676_8372">
            <rect width="13.3327" height="13.3327" fill="white" transform="matrix(0.948692 -0.316203 0.707138 0.707076 411.682 161.217)"/>
        </clipPath>
        <clipPath id="clip9_676_8372">
            <rect width="16.2955" height="16.2955" fill="white" transform="matrix(0.948692 -0.316203 0.707138 0.707076 116.891 110.033)"/>
        </clipPath>
        <clipPath id="clip10_676_8372">
            <rect width="28.5322" height="28.5322" fill="white" transform="matrix(0.948692 -0.316203 0.707138 0.707076 570.508 89.4935)"/>
        </clipPath>
        <clipPath id="clip11_676_8372">
            <rect width="33.2866" height="33.2866" fill="white" transform="matrix(0.948692 -0.316203 0.707138 0.707076 46.2581 187.576)"/>
        </clipPath>
        <clipPath id="clip12_676_8372">
            <rect width="42.797" height="42.797" fill="white" transform="matrix(0.948692 -0.316203 0.707138 0.707076 506.76 208.74)"/>
        </clipPath>
    </defs>
</svg>
