<svg width="18" height="18" viewBox="0 0 18 18" xmlns="http://www.w3.org/2000/svg" fill="currentColor">
    <path d="M13.3521 9.1018C13.2999 9.04845 13.2376 9.00603 13.1688 8.977C13.1 8.94798 13.0262 8.93293 12.9515 8.93274C12.8769 8.93255 12.8029 8.94722 12.734 8.97589C12.6651 9.00456 12.6026 9.04667 12.5501 9.09975C12.4976 9.15283 12.4562 9.21582 12.4283 9.28506C12.4004 9.3543 12.3866 9.4284 12.3876 9.50304C12.3887 9.57768 12.4045 9.65137 12.4344 9.71981C12.4642 9.78825 12.5073 9.85007 12.5612 9.90168C13.0384 10.3713 13.4171 10.9315 13.6749 11.5494C13.9327 12.1673 14.0645 12.8305 14.0625 13.5C14.0625 14.1879 12.0904 15.1875 9.00003 15.1875C5.90965 15.1875 3.93753 14.1874 3.93753 13.4989C3.93561 12.8339 4.06562 12.1752 4.32005 11.5608C4.57447 10.9464 4.94824 10.3886 5.41971 9.91968C5.47344 9.86779 5.51629 9.80572 5.54577 9.73709C5.57525 9.66846 5.59077 9.59465 5.59142 9.51996C5.59207 9.44527 5.57783 9.37121 5.54955 9.30208C5.52127 9.23295 5.4795 9.17014 5.42669 9.11733C5.37387 9.06451 5.31107 9.02275 5.24194 8.99446C5.17281 8.96618 5.09874 8.95195 5.02405 8.9526C4.94936 8.95325 4.87555 8.96876 4.80692 8.99824C4.7383 9.02772 4.67623 9.07058 4.62434 9.1243C4.04798 9.6976 3.59107 10.3795 3.28007 11.1306C2.96907 11.8817 2.81015 12.6871 2.81253 13.5C2.81253 15.327 6.00021 16.3125 9.00003 16.3125C11.9998 16.3125 15.1875 15.327 15.1875 13.5C15.19 12.6816 15.0289 11.8709 14.7137 11.1156C14.3986 10.3603 13.9356 9.67566 13.3521 9.1018Z"/>
    <path d="M9 9.5625C9.77876 9.5625 10.54 9.33157 11.1876 8.89891C11.8351 8.46626 12.3398 7.8513 12.6378 7.13182C12.9358 6.41233 13.0138 5.62063 12.8618 4.85683C12.7099 4.09303 12.3349 3.39144 11.7842 2.84077C11.2336 2.2901 10.532 1.91509 9.76817 1.76316C9.00437 1.61123 8.21267 1.68921 7.49318 1.98723C6.7737 2.28525 6.15875 2.78993 5.72609 3.43744C5.29343 4.08496 5.0625 4.84624 5.0625 5.625C5.06369 6.66893 5.47892 7.66975 6.21708 8.40792C6.95525 9.14609 7.95608 9.56131 9 9.5625ZM9 2.8125C9.55626 2.8125 10.1 2.97745 10.5625 3.28649C11.0251 3.59553 11.3855 4.03479 11.5984 4.5487C11.8113 5.06262 11.867 5.62812 11.7585 6.17369C11.6499 6.71926 11.3821 7.2204 10.9887 7.61374C10.5954 8.00707 10.0943 8.27494 9.54869 8.38346C9.00312 8.49198 8.43762 8.43628 7.9237 8.22341C7.40979 8.01054 6.97053 7.65006 6.66149 7.18754C6.35245 6.72503 6.1875 6.18126 6.1875 5.625C6.18839 4.87935 6.485 4.1645 7.01225 3.63725C7.5395 3.11 8.25435 2.81339 9 2.8125Z"/>
</svg>
