<svg width="24" height="24" viewBox="0 0 24 24" fill="none" xmlns="http://www.w3.org/2000/svg">
    <path d="M19.7414 5.625C19.1589 5.625 18.6867 6.09717 18.6867 6.67969V10.6406C18.6867 11.0289 18.3719 11.3438 17.9836 11.3438C17.5953 11.3438 17.2805 11.0289 17.2805 10.6406V3.86719C17.2805 3.28467 16.8082 2.8125 16.2258 2.8125C15.6433 2.8125 15.1711 3.28467 15.1711 3.86719V10.6406C15.1711 11.0289 14.8563 11.3438 14.468 11.3438C14.0797 11.3438 13.7648 11.0289 13.7648 10.6406V1.05469C13.7648 0.472172 13.2926 0 12.7102 0C12.1277 0 11.6555 0.472172 11.6555 1.05469V10.6406C11.6555 11.0289 11.3407 11.3438 10.9523 11.3438C10.564 11.3438 10.2492 11.0289 10.2492 10.6406V3.86719C10.2492 3.28467 9.777 2.8125 9.19453 2.8125C8.61206 2.8125 8.13984 3.28467 8.13984 3.86719V15.5625L6.84614 13.6219C6.00234 12.3703 4.21645 12.2156 3.2039 13.3266L7.74604 20.7516C9.11681 22.987 11.6001 24 13.7648 24C17.6481 24 20.7961 20.852 20.7961 16.9688V6.67969C20.7961 6.09717 20.3239 5.625 19.7414 5.625Z" fill="url(#paint0_linear_1287_14565)"/>
    <defs>
        <linearGradient id="paint0_linear_1287_14565" x1="1.89705" y1="1.3115e-06" x2="25.2517" y2="3.8714" gradientUnits="userSpaceOnUse">
            <stop offset="0.119792" stop-color="#FF7DB1"/>
            <stop offset="0.666667" stop-color="#7852E4"/>
        </linearGradient>
    </defs>
</svg>
