<svg width="24" height="24" viewBox="0 0 24 24" fill="none" xmlns="http://www.w3.org/2000/svg">
    <g clip-path="url(#clip0_1286_14474)">
        <mask id="mask0_1286_14474" style="mask-type:luminance" maskUnits="userSpaceOnUse" x="0" y="0" width="24" height="24">
            <path d="M0 0H24V24H0V0Z" fill="white"/>
        </mask>
        <g mask="url(#mask0_1286_14474)">
            <path fill-rule="evenodd" clip-rule="evenodd" d="M23.9136 11.5548C21.3492 5.14318 16.4172 2.21998 11.4876 2.47678C6.6156 2.72878 2.0172 6.07918 0.0684036 11.6004L-0.0731964 12L0.0684036 12.3996C2.0172 17.9208 6.6144 21.2712 11.4876 21.5232C16.4172 21.7788 21.3492 18.8568 23.9136 12.4452L24.0924 12L23.9136 11.5548ZM12 18C13.5913 18 15.1174 17.3678 16.2426 16.2426C17.3679 15.1174 18 13.5913 18 12C18 10.4087 17.3679 8.88255 16.2426 7.75734C15.1174 6.63212 13.5913 5.99998 12 5.99998C10.4087 5.99998 8.88258 6.63212 7.75736 7.75734C6.63214 8.88255 6 10.4087 6 12C6 13.5913 6.63214 15.1174 7.75736 16.2426C8.88258 17.3678 10.4087 18 12 18Z" fill="url(#paint0_linear_1286_14474)"/>
            <path d="M15.6 12C15.6 12.9547 15.2207 13.8704 14.5456 14.5455C13.8705 15.2207 12.9548 15.6 12 15.6C11.0452 15.6 10.1296 15.2207 9.45442 14.5455C8.77929 13.8704 8.40001 12.9547 8.40001 12C8.40001 11.0452 8.77929 10.1295 9.45442 9.45438C10.1296 8.77925 11.0452 8.39996 12 8.39996C12.9548 8.39996 13.8705 8.77925 14.5456 9.45438C15.2207 10.1295 15.6 11.0452 15.6 12Z" fill="url(#paint1_linear_1286_14474)"/>
        </g>
    </g>
    <defs>
        <linearGradient id="paint0_linear_1286_14474" x1="-1.86836" y1="2.46124" x2="28.5945" y2="11.1877" gradientUnits="userSpaceOnUse">
            <stop offset="0.119792" stop-color="#FF7DB1"/>
            <stop offset="0.666667" stop-color="#7852E4"/>
        </linearGradient>
        <linearGradient id="paint1_linear_1286_14474" x1="7.86515" y1="8.39996" x2="17.2084" y2="10.5129" gradientUnits="userSpaceOnUse">
            <stop offset="0.119792" stop-color="#FF7DB1"/>
            <stop offset="0.666667" stop-color="#7852E4"/>
        </linearGradient>
        <clipPath id="clip0_1286_14474">
            <rect width="24" height="24" fill="white"/>
        </clipPath>
    </defs>
</svg>
