<svg width="24" height="24" viewBox="0 0 24 24" fill="none" xmlns="http://www.w3.org/2000/svg">
    <path fill-rule="evenodd" clip-rule="evenodd" d="M19.4069 16.3157L21.7455 20.3662C21.8455 20.5395 21.6976 20.7502 21.5005 20.7149L18.0429 20.0947L16.8511 23.3992C16.7832 23.5875 16.5268 23.6103 16.4267 23.4369L14.089 19.3879C16.1784 18.9428 18.0259 17.8443 19.4069 16.3157ZM12 0.445312C6.92847 0.445312 2.81721 4.55658 2.81721 9.62803C2.81721 14.6995 6.92847 18.8107 11.9999 18.8107C17.0714 18.8107 21.1826 14.6995 21.1826 9.62803C21.1827 4.55658 17.0715 0.445312 12 0.445312ZM12 2.69597C8.17155 2.69597 5.06786 5.7997 5.06786 9.62808C5.06786 13.4565 8.17155 16.5602 12 16.5602C15.8284 16.5602 18.9321 13.4565 18.9321 9.62808C18.932 5.7997 15.8283 2.69597 12 2.69597ZM12 3.49284C15.3884 3.49284 18.1352 6.23962 18.1352 9.62808C18.1352 13.0166 15.3885 15.7634 12 15.7634C8.61152 15.7634 5.86474 13.0166 5.86474 9.62808C5.86474 6.23958 8.61147 3.49284 12 3.49284ZM14.533 6.87014C14.8463 6.55692 15.3541 6.55692 15.6672 6.87014C15.9804 7.18336 15.9805 7.69116 15.6672 8.00433L11.2855 12.386C10.9309 12.7407 10.3448 12.685 10.0601 12.2773L8.27167 10.0266C7.99661 9.68048 8.05408 9.17691 8.40016 8.90175C8.74619 8.62664 9.24981 8.68416 9.52492 9.03023L10.786 10.6171L14.533 6.87014ZM9.91089 19.388L7.57324 23.437C7.47311 23.6103 7.21675 23.5875 7.14878 23.3992L5.95694 20.0948L2.49939 20.7149C2.30233 20.7502 2.15439 20.5396 2.25442 20.3663L4.59297 16.3158C5.9741 17.8442 7.82149 18.9429 9.91089 19.388Z" fill="url(#paint0_linear_1287_14593)"/>
    <defs>
        <linearGradient id="paint0_linear_1287_14593" x1="0.769607" y1="0.445314" x2="26.5014" y2="5.36951" gradientUnits="userSpaceOnUse">
            <stop offset="0.119792" stop-color="#FF7DB1"/>
            <stop offset="0.666667" stop-color="#7852E4"/>
        </linearGradient>
    </defs>
</svg>
