<svg width="24" height="24" viewBox="0 0 24 24" fill="none" xmlns="http://www.w3.org/2000/svg">
    <path d="M0 13.3924V23.2935C0 23.6844 0.318438 24.0007 0.712055 24.0007H4.27225V12.6851H0.712055C0.318438 12.6851 0 13.0015 0 13.3924ZM19.2251 12.6851H12.9766L14.2018 6.72204C14.4456 5.3178 13.3747 4.19838 12.1047 4.19838C11.2244 4.19838 10.4247 4.74609 10.116 5.55684L7.52378 12.2333C7.41737 12.5075 7.15313 12.685 6.84995 12.685H5.69636V24.0007H16.3769C17.2524 24.0007 18.0312 23.4779 18.3629 22.665C21.1592 15.5656 21.3612 15.5564 21.3612 14.8068C21.3612 13.6368 20.403 12.6851 19.2251 12.6851ZM23.9653 3.37515C23.9197 3.23746 23.8332 3.11699 23.7172 3.02986C23.6013 2.94273 23.4615 2.89309 23.3165 2.88759L20.775 2.78746L19.8933 0.417177C19.6861 -0.138082 18.764 -0.138082 18.5568 0.417177L17.6751 2.78746L15.1335 2.88759C14.9886 2.89312 14.8488 2.94276 14.7329 3.02989C14.6169 3.11702 14.5304 3.23748 14.4847 3.37515C14.4399 3.51285 14.4385 3.66103 14.4808 3.79955C14.5231 3.93807 14.607 4.0602 14.7212 4.14934L16.7176 5.71436L16.0285 8.1475C15.9892 8.28684 15.9937 8.43489 16.0415 8.57156C16.0893 8.70822 16.1779 8.82686 16.2955 8.91137C16.536 9.08469 16.8615 9.09026 17.1097 8.92726L19.225 7.5239L21.3403 8.92726C21.4616 9.00739 21.6045 9.04877 21.7499 9.04593C21.8953 9.04309 22.0364 8.99617 22.1545 8.91137C22.2721 8.82686 22.3607 8.70822 22.4085 8.57156C22.4563 8.43489 22.4608 8.28684 22.4215 8.1475L21.7325 5.71436L23.7288 4.14934C23.843 4.0602 23.9269 3.93807 23.9692 3.79956C24.0115 3.66104 24.0102 3.51286 23.9653 3.37515Z" fill="url(#paint0_linear_1287_14574)"/>
    <defs>
        <linearGradient id="paint0_linear_1287_14574" x1="-1.78286" y1="0.000733733" x2="29.3612" y2="7.04381" gradientUnits="userSpaceOnUse">
            <stop offset="0.119792" stop-color="#FF7DB1"/>
            <stop offset="0.666667" stop-color="#7852E4"/>
        </linearGradient>
    </defs>
</svg>
