<svg width="24" height="24" viewBox="0 0 24 24" fill="none" xmlns="http://www.w3.org/2000/svg">
    <g clip-path="url(#clip0_1287_14580)">
        <path d="M16.099 19.8449L12.6884 16.8134C12.5962 16.731 12.4839 16.6746 12.3628 16.6497C12.2417 16.6249 12.1162 16.6325 11.999 16.6719C11.5012 16.8374 10.9801 16.9218 10.4486 16.9218C8.20394 16.9218 6.24359 15.4036 5.68194 13.2304C5.6023 12.9201 5.32213 12.7031 5.00146 12.7031H0.704442C0.277881 12.7031 -0.0524928 13.081 0.00816322 13.5058C0.745598 18.6597 5.23419 22.5468 10.4485 22.5468C12.4171 22.5468 14.3377 22.0009 16.0028 20.9675C16.405 20.7189 16.4479 20.1535 16.099 19.8449ZM18.3285 4.9942C16.329 2.74407 13.4568 1.45319 10.4486 1.45319C5.24108 1.45319 0.752488 5.33958 0.00750697 10.4929C-0.0545084 10.9182 0.276522 11.2969 0.703082 11.2969H5.00628C5.32316 11.2969 5.61613 11.0382 5.69694 10.7319C6.26483 8.57877 8.21383 7.07821 10.4486 7.07821C11.6773 7.07821 12.8576 7.53772 13.7585 8.35391C14.2916 8.83681 15.124 8.78216 15.6617 8.30446L18.2702 5.98715C18.5598 5.72883 18.5871 5.28422 18.3285 4.9942Z" fill="url(#paint0_linear_1287_14580)"/>
        <path d="M20.4114 3.1098C20.1581 2.82705 19.7135 2.81374 19.4299 3.06612L13.6241 8.23402C14.7421 9.18178 15.3705 10.5591 15.3705 12C15.3705 13.2172 14.922 14.3891 14.1089 15.2949C13.8567 15.5759 13.904 16.0151 14.186 16.2662L19.4306 20.9347C19.7184 21.1915 20.1629 21.1683 20.4228 20.8777C22.6056 18.4346 24.0001 15.2815 24.0001 12C24 8.71289 22.6015 5.55461 20.4114 3.1098Z" fill="#FF7DB1"/>
    </g>
    <defs>
        <linearGradient id="paint0_linear_1287_14580" x1="-1.37473" y1="1.45319" x2="22.9122" y2="6.27184" gradientUnits="userSpaceOnUse">
            <stop offset="0.119792" stop-color="#FF7DB1"/>
            <stop offset="0.666667" stop-color="#7852E4"/>
        </linearGradient>
        <clipPath id="clip0_1287_14580">
            <rect width="24" height="24" fill="white"/>
        </clipPath>
    </defs>
</svg>
