<svg width="24" height="24" viewBox="0 0 24 24" fill="none" xmlns="http://www.w3.org/2000/svg">
    <path d="M18.4987 6.54001C18.4437 6.48039 18.3709 6.44004 18.2912 6.4249C18.2114 6.40976 18.129 6.42064 18.0559 6.45592C17.9828 6.49121 17.923 6.54903 17.8852 6.62088C17.8475 6.69274 17.8338 6.77481 17.8462 6.85501C17.85 6.87376 18.165 8.71501 17.0925 9.67501C16.9024 9.83954 16.6632 9.9365 16.4122 9.95075C16.1612 9.965 15.9125 9.89573 15.705 9.75376C14.8912 9.19126 14.0962 7.99501 14.9137 5.46376C15.1837 4.36876 15.1275 2.13001 13.0012 1.51501C12.9316 1.49584 12.8579 1.49704 12.7889 1.51846C12.7199 1.53987 12.6585 1.58061 12.6119 1.63585C12.5654 1.6911 12.5356 1.75852 12.5262 1.83015C12.5168 1.90178 12.5281 1.97461 12.5587 2.04001C13.158 3.39751 12.312 4.81201 10.38 5.42626C10.2975 5.46376 8.3925 6.40501 9.225 10.9388C9.39187 11.6156 8.85225 12.7429 8.03625 12.225C7.50375 11.8575 6.88874 11.1113 6.99 9.63751C6.99381 9.55637 6.97136 9.47616 6.92598 9.40879C6.88059 9.34141 6.81469 9.29047 6.73806 9.26353C6.66143 9.23658 6.57815 9.23506 6.50058 9.2592C6.42302 9.28333 6.35531 9.33184 6.30749 9.39751C6.22874 9.51376 4.31249 12.2663 4.94999 15.6188C5.51249 19.1006 9.94949 23.1953 14.0287 22.4175C15.333 22.2213 16.5749 21.7289 17.6593 20.9782C18.7437 20.2275 19.6417 19.2383 20.2845 18.0866C20.6248 17.4812 20.8502 16.8181 20.9494 16.1306C21.2524 14.1566 21.4519 9.91576 18.4987 6.54001ZM17.7187 17.1975C17.0295 23.5733 5.82 21.4875 8.35875 14.8313C8.38921 14.7634 8.439 14.7059 8.50191 14.6661C8.56482 14.6264 8.63805 14.606 8.71247 14.6076C8.78688 14.6092 8.85917 14.6327 8.92031 14.6751C8.98145 14.7176 9.02873 14.7771 9.05624 14.8463C9.56437 16.2319 10.983 16.839 11.9662 16.4363C13.3339 15.6101 11.8676 12.9608 11.4525 12.2175C11.0487 11.459 10.9159 10.5854 11.0762 9.74119C11.2364 8.89698 11.6801 8.13278 12.3337 7.57501C12.39 7.53092 12.4577 7.50394 12.5289 7.49729C12.6 7.49064 12.6716 7.5046 12.735 7.53751C12.7988 7.57022 12.8521 7.62034 12.8886 7.68206C12.9251 7.74378 12.9433 7.81458 12.9412 7.88626C12.8993 8.56438 13.0012 9.24372 13.2403 9.87967C13.4794 10.5156 13.8504 11.0938 14.3287 11.5763C16.3129 13.005 17.8455 14.844 17.7187 17.1975ZM16.9687 17.1488C16.8356 19.758 13.8026 20.8568 11.4862 20.025C9.45749 19.4269 8.46187 17.7818 8.82 15.99C10.062 17.595 12.591 17.9355 13.1962 15.9863C13.635 14.3738 12.1575 11.9288 12.1087 11.8538C11.8467 11.3865 11.7189 10.8559 11.7394 10.3205C11.7599 9.78516 11.928 9.26589 12.225 8.82001C12.3596 10.0889 12.9356 11.2701 13.8525 12.1575C13.8666 12.1699 13.8816 12.1812 13.8975 12.1913C15.645 13.4505 17.0775 15.0746 16.9687 17.1488Z" fill="url(#paint0_linear_1287_14590)"/>
    <defs>
        <linearGradient id="paint0_linear_1287_14590" x1="3.61004" y1="1.50147" x2="25.1704" y2="5.28202" gradientUnits="userSpaceOnUse">
            <stop offset="0.119792" stop-color="#FF7DB1"/>
            <stop offset="0.666667" stop-color="#7852E4"/>
        </linearGradient>
    </defs>
</svg>
